<?xml version="1.0" encoding="UTF-8" standalone="no"?><svg xmlns="http://www.w3.org/2000/svg" xmlns:xlink="http://www.w3.org/1999/xlink" contentScriptType="application/ecmascript" contentStyleType="text/css" height="1590px" preserveAspectRatio="none" style="width:520px;height:1590px;" version="1.1" viewBox="0 0 520 1590" width="520px" zoomAndPan="magnify"><defs><filter height="300%" id="f1cybzzzj8dis6" width="300%" x="-1" y="-1"><feGaussianBlur result="blurOut" stdDeviation="2.0"/><feColorMatrix in="blurOut" result="blurOut2" type="matrix" values="0 0 0 0 0 0 0 0 0 0 0 0 0 0 0 0 0 0 .4 0"/><feOffset dx="4.0" dy="4.0" in="blurOut2" result="blurOut3"/><feBlend in="SourceGraphic" in2="blurOut3" mode="normal"/></filter></defs><g><text fill="#000000" font-family="sans-serif" font-size="18" lengthAdjust="spacingAndGlyphs" textLength="496" x="12" y="27.4023">Append vendor requested options algorithm (Kea 1.7.11)</text><rect fill="#FEFECE" filter="url(#f1cybzzzj8dis6)" height="34.1328" rx="12.5" ry="12.5" style="stroke: #A80036; stroke-width: 1.5;" width="237" x="144.25" y="32.1992"/><text fill="#000000" font-family="sans-serif" font-size="12" lengthAdjust="spacingAndGlyphs" textLength="217" x="154.25" y="53.8008">get vendor id from query vivso option</text><rect fill="#FEFECE" filter="url(#f1cybzzzj8dis6)" height="34.1328" rx="12.5" ry="12.5" style="stroke: #A80036; stroke-width: 1.5;" width="257" x="134.25" y="86.332"/><text fill="#000000" font-family="sans-serif" font-size="12" lengthAdjust="spacingAndGlyphs" textLength="237" x="144.25" y="107.9336">get vendor id from response vivso option</text><rect fill="#FEFECE" filter="url(#f1cybzzzj8dis6)" height="34.1328" rx="12.5" ry="12.5" style="stroke: #A80036; stroke-width: 1.5;" width="55" x="235.25" y="188.9424"/><text fill="#000000" font-family="sans-serif" font-size="12" lengthAdjust="spacingAndGlyphs" textLength="35" x="245.25" y="210.5439">return</text><ellipse cx="262.75" cy="262.5088" fill="#FFFFFF" filter="url(#f1cybzzzj8dis6)" rx="11" ry="11" style="stroke: #000000; stroke-width: 1.0;"/><ellipse cx="262.75" cy="262.5088" fill="#000000" rx="6" ry="6" style="stroke: #7F7F7F; stroke-width: 1.0;"/><polygon fill="#FEFECE" filter="url(#f1cybzzzj8dis6)" points="237.25,140.4648,288.25,140.4648,300.25,152.4648,288.25,164.4648,237.25,164.4648,225.25,152.4648,237.25,140.4648" style="stroke: #A80036; stroke-width: 1.5;"/><text fill="#000000" font-family="sans-serif" font-size="11" lengthAdjust="spacingAndGlyphs" textLength="14" x="266.75" y="175.0996">no</text><text fill="#000000" font-family="sans-serif" font-size="11" lengthAdjust="spacingAndGlyphs" textLength="51" x="237.25" y="156.6221">vendor id</text><text fill="#000000" font-family="sans-serif" font-size="11" lengthAdjust="spacingAndGlyphs" textLength="18" x="300.25" y="150.1445">yes</text><rect fill="#FEFECE" filter="url(#f1cybzzzj8dis6)" height="34.1328" rx="12.5" ry="12.5" style="stroke: #A80036; stroke-width: 1.5;" width="163" x="181.25" y="315.5088"/><text fill="#000000" font-family="sans-serif" font-size="12" lengthAdjust="spacingAndGlyphs" textLength="143" x="191.25" y="337.1104">get configured option list</text><rect fill="#FEFECE" filter="url(#f1cybzzzj8dis6)" height="34.1328" rx="12.5" ry="12.5" style="stroke: #A80036; stroke-width: 1.5;" width="381" x="72.25" y="369.6416"/><text fill="#000000" font-family="sans-serif" font-size="12" lengthAdjust="spacingAndGlyphs" textLength="361" x="82.25" y="391.2432">get option request list (ORO) from query DOCSIS vendor option</text><rect fill="#FEFECE" filter="url(#f1cybzzzj8dis6)" height="34.1328" rx="12.5" ry="12.5" style="stroke: #A80036; stroke-width: 1.5;" width="260" x="132.75" y="467.7744"/><text fill="#000000" font-family="sans-serif" font-size="12" lengthAdjust="spacingAndGlyphs" textLength="240" x="142.75" y="489.376">get configured options in vendor id space</text><rect fill="#FEFECE" filter="url(#f1cybzzzj8dis6)" height="34.1328" rx="12.5" ry="12.5" style="stroke: #A80036; stroke-width: 1.5;" width="197" x="164.25" y="565.9072"/><text fill="#000000" font-family="sans-serif" font-size="12" lengthAdjust="spacingAndGlyphs" textLength="177" x="174.25" y="587.5088">push back option code to ORO</text><polygon fill="#FEFECE" filter="url(#f1cybzzzj8dis6)" points="193.25,521.9072,332.25,521.9072,344.25,533.9072,332.25,545.9072,193.25,545.9072,181.25,533.9072,193.25,521.9072" style="stroke: #A80036; stroke-width: 1.5;"/><text fill="#000000" font-family="sans-serif" font-size="11" lengthAdjust="spacingAndGlyphs" textLength="139" x="193.25" y="538.0645">for each persistent option</text><polygon fill="#FEFECE" filter="url(#f1cybzzzj8dis6)" points="153.75,423.7744,371.75,423.7744,383.75,435.7744,371.75,447.7744,153.75,447.7744,141.75,435.7744,153.75,423.7744" style="stroke: #A80036; stroke-width: 1.5;"/><text fill="#000000" font-family="sans-serif" font-size="11" lengthAdjust="spacingAndGlyphs" textLength="218" x="153.75" y="439.9316">for each item from configured option list</text><rect fill="#FEFECE" filter="url(#f1cybzzzj8dis6)" height="34.1328" rx="12.5" ry="12.5" style="stroke: #A80036; stroke-width: 1.5;" width="207" x="159.25" y="712.5176"/><text fill="#000000" font-family="sans-serif" font-size="12" lengthAdjust="spacingAndGlyphs" textLength="187" x="169.25" y="734.1191">create vivso option for vendor id</text><polygon fill="#FEFECE" filter="url(#f1cybzzzj8dis6)" points="203.25,664.04,322.25,664.04,334.25,676.04,322.25,688.04,203.25,688.04,191.25,676.04,203.25,664.04" style="stroke: #A80036; stroke-width: 1.5;"/><text fill="#000000" font-family="sans-serif" font-size="11" lengthAdjust="spacingAndGlyphs" textLength="14" x="266.75" y="698.6748">no</text><text fill="#000000" font-family="sans-serif" font-size="11" lengthAdjust="spacingAndGlyphs" textLength="119" x="203.25" y="680.1973">response vivso option</text><text fill="#000000" font-family="sans-serif" font-size="11" lengthAdjust="spacingAndGlyphs" textLength="18" x="334.25" y="673.7197">yes</text><polygon fill="#FEFECE" filter="url(#f1cybzzzj8dis6)" points="262.75,766.6504,274.75,778.6504,262.75,790.6504,250.75,778.6504,262.75,766.6504" style="stroke: #A80036; stroke-width: 1.5;"/><rect fill="#FEFECE" filter="url(#f1cybzzzj8dis6)" height="34.1328" rx="12.5" ry="12.5" style="stroke: #A80036; stroke-width: 1.5;" width="103" x="211.25" y="810.6504"/><text fill="#000000" font-family="sans-serif" font-size="12" lengthAdjust="spacingAndGlyphs" textLength="83" x="221.25" y="832.252">added = false</text><rect fill="#FEFECE" filter="url(#f1cybzzzj8dis6)" height="34.1328" rx="12.5" ry="12.5" style="stroke: #A80036; stroke-width: 1.5;" width="260" x="132.75" y="1001.2607"/><text fill="#000000" font-family="sans-serif" font-size="12" lengthAdjust="spacingAndGlyphs" textLength="240" x="142.75" y="1022.8623">get configured options in vendor id space</text><rect fill="#FEFECE" filter="url(#f1cybzzzj8dis6)" height="34.1328" rx="12.5" ry="12.5" style="stroke: #A80036; stroke-width: 1.5;" width="198" x="163.75" y="1103.8711"/><text fill="#000000" font-family="sans-serif" font-size="12" lengthAdjust="spacingAndGlyphs" textLength="178" x="173.75" y="1125.4727">add sub-option to vivso option</text><rect fill="#FEFECE" filter="url(#f1cybzzzj8dis6)" height="34.1328" rx="12.5" ry="12.5" style="stroke: #A80036; stroke-width: 1.5;" width="99" x="213.25" y="1173.0039"/><text fill="#000000" font-family="sans-serif" font-size="12" lengthAdjust="spacingAndGlyphs" textLength="79" x="223.25" y="1194.6055">added = true</text><polygon fill="#FEFECE" filter="url(#f1cybzzzj8dis6)" points="246.75,1055.3936,278.75,1055.3936,290.75,1067.3936,278.75,1079.3936,246.75,1079.3936,234.75,1067.3936,246.75,1055.3936" style="stroke: #A80036; stroke-width: 1.5;"/><text fill="#000000" font-family="sans-serif" font-size="11" lengthAdjust="spacingAndGlyphs" textLength="22" x="266.75" y="1090.0283">first</text><text fill="#000000" font-family="sans-serif" font-size="11" lengthAdjust="spacingAndGlyphs" textLength="32" x="246.75" y="1071.5508">found</text><text fill="#000000" font-family="sans-serif" font-size="11" lengthAdjust="spacingAndGlyphs" textLength="145" x="290.75" y="1065.0732">not found or already found</text><polygon fill="#FEFECE" filter="url(#f1cybzzzj8dis6)" points="262.75,1227.1367,274.75,1239.1367,262.75,1251.1367,250.75,1239.1367,262.75,1227.1367" style="stroke: #A80036; stroke-width: 1.5;"/><polygon fill="#FEFECE" filter="url(#f1cybzzzj8dis6)" points="153.75,957.2607,371.75,957.2607,383.75,969.2607,371.75,981.2607,153.75,981.2607,141.75,969.2607,153.75,957.2607" style="stroke: #A80036; stroke-width: 1.5;"/><text fill="#000000" font-family="sans-serif" font-size="11" lengthAdjust="spacingAndGlyphs" textLength="218" x="153.75" y="973.418">for each item from configured option list</text><polygon fill="#FEFECE" filter="url(#f1cybzzzj8dis6)" points="165.25,908.7832,360.25,908.7832,372.25,920.7832,360.25,932.7832,165.25,932.7832,153.25,920.7832,165.25,908.7832" style="stroke: #A80036; stroke-width: 1.5;"/><text fill="#000000" font-family="sans-serif" font-size="11" lengthAdjust="spacingAndGlyphs" textLength="18" x="266.75" y="943.418">yes</text><text fill="#000000" font-family="sans-serif" font-size="11" lengthAdjust="spacingAndGlyphs" textLength="195" x="165.25" y="924.9404">sub-option is not set in vivso option</text><text fill="#000000" font-family="sans-serif" font-size="11" lengthAdjust="spacingAndGlyphs" textLength="14" x="372.25" y="918.4629">no</text><polygon fill="#FEFECE" filter="url(#f1cybzzzj8dis6)" points="262.75,1293.1367,274.75,1305.1367,262.75,1317.1367,250.75,1305.1367,262.75,1293.1367" style="stroke: #A80036; stroke-width: 1.5;"/><rect fill="#FEFECE" filter="url(#f1cybzzzj8dis6)" height="34.1328" rx="12.5" ry="12.5" style="stroke: #A80036; stroke-width: 1.5;" width="186" x="169.75" y="1434.0918"/><text fill="#000000" font-family="sans-serif" font-size="12" lengthAdjust="spacingAndGlyphs" textLength="166" x="179.75" y="1455.6934">add vivso option in response</text><polygon fill="#FEFECE" filter="url(#f1cybzzzj8dis6)" points="196.75,1385.6143,328.75,1385.6143,340.75,1397.6143,328.75,1409.6143,196.75,1409.6143,184.75,1397.6143,196.75,1385.6143" style="stroke: #A80036; stroke-width: 1.5;"/><text fill="#000000" font-family="sans-serif" font-size="11" lengthAdjust="spacingAndGlyphs" textLength="14" x="266.75" y="1420.249">no</text><text fill="#000000" font-family="sans-serif" font-size="11" lengthAdjust="spacingAndGlyphs" textLength="132" x="196.75" y="1401.7715">vivso option in response</text><text fill="#000000" font-family="sans-serif" font-size="11" lengthAdjust="spacingAndGlyphs" textLength="18" x="340.75" y="1395.2939">yes</text><polygon fill="#FEFECE" filter="url(#f1cybzzzj8dis6)" points="262.75,1488.2246,274.75,1500.2246,262.75,1512.2246,250.75,1500.2246,262.75,1488.2246" style="stroke: #A80036; stroke-width: 1.5;"/><polygon fill="#FEFECE" filter="url(#f1cybzzzj8dis6)" points="246.25,1337.1367,279.25,1337.1367,291.25,1349.1367,279.25,1361.1367,246.25,1361.1367,234.25,1349.1367,246.25,1337.1367" style="stroke: #A80036; stroke-width: 1.5;"/><text fill="#000000" font-family="sans-serif" font-size="11" lengthAdjust="spacingAndGlyphs" textLength="18" x="266.75" y="1371.7715">yes</text><text fill="#000000" font-family="sans-serif" font-size="11" lengthAdjust="spacingAndGlyphs" textLength="33" x="246.25" y="1353.2939">added</text><text fill="#000000" font-family="sans-serif" font-size="11" lengthAdjust="spacingAndGlyphs" textLength="14" x="291.25" y="1346.8164">no</text><polygon fill="#FEFECE" filter="url(#f1cybzzzj8dis6)" points="262.75,1532.2246,274.75,1544.2246,262.75,1556.2246,250.75,1544.2246,262.75,1532.2246" style="stroke: #A80036; stroke-width: 1.5;"/><polygon fill="#FEFECE" filter="url(#f1cybzzzj8dis6)" points="205.75,864.7832,319.75,864.7832,331.75,876.7832,319.75,888.7832,205.75,888.7832,193.75,876.7832,205.75,864.7832" style="stroke: #A80036; stroke-width: 1.5;"/><text fill="#000000" font-family="sans-serif" font-size="11" lengthAdjust="spacingAndGlyphs" textLength="114" x="205.75" y="880.9404">for each code in ORO</text><ellipse cx="75.75" cy="919.7832" fill="#FFFFFF" filter="url(#f1cybzzzj8dis6)" rx="11" ry="11" style="stroke: #000000; stroke-width: 1.0;"/><ellipse cx="75.75" cy="919.7832" fill="#000000" rx="6" ry="6" style="stroke: #7F7F7F; stroke-width: 1.0;"/><line style="stroke: #A80036; stroke-width: 1.5;" x1="262.75" x2="262.75" y1="66.332" y2="86.332"/><polygon fill="#A80036" points="258.75,76.332,262.75,86.332,266.75,76.332,262.75,80.332" style="stroke: #A80036; stroke-width: 1.0;"/><line style="stroke: #A80036; stroke-width: 1.5;" x1="262.75" x2="262.75" y1="223.0752" y2="251.5088"/><polygon fill="#A80036" points="258.75,241.5088,262.75,251.5088,266.75,241.5088,262.75,245.5088" style="stroke: #A80036; stroke-width: 1.0;"/><line style="stroke: #A80036; stroke-width: 1.5;" x1="262.75" x2="262.75" y1="164.4648" y2="188.9424"/><polygon fill="#A80036" points="258.75,178.9424,262.75,188.9424,266.75,178.9424,262.75,182.9424" style="stroke: #A80036; stroke-width: 1.0;"/><line style="stroke: #A80036; stroke-width: 1.5;" x1="300.25" x2="312.25" y1="152.4648" y2="152.4648"/><polygon fill="#A80036" points="308.25,221.5088,312.25,231.5088,316.25,221.5088,312.25,225.5088" style="stroke: #A80036; stroke-width: 1.5;"/><line style="stroke: #A80036; stroke-width: 1.5;" x1="312.25" x2="312.25" y1="152.4648" y2="295.5088"/><line style="stroke: #A80036; stroke-width: 1.5;" x1="312.25" x2="262.75" y1="295.5088" y2="295.5088"/><line style="stroke: #A80036; stroke-width: 1.5;" x1="262.75" x2="262.75" y1="295.5088" y2="315.5088"/><polygon fill="#A80036" points="258.75,305.5088,262.75,315.5088,266.75,305.5088,262.75,309.5088" style="stroke: #A80036; stroke-width: 1.0;"/><line style="stroke: #A80036; stroke-width: 1.5;" x1="262.75" x2="262.75" y1="120.4648" y2="140.4648"/><polygon fill="#A80036" points="258.75,130.4648,262.75,140.4648,266.75,130.4648,262.75,134.4648" style="stroke: #A80036; stroke-width: 1.0;"/><line style="stroke: #A80036; stroke-width: 1.5;" x1="262.75" x2="262.75" y1="349.6416" y2="369.6416"/><polygon fill="#A80036" points="258.75,359.6416,262.75,369.6416,266.75,359.6416,262.75,363.6416" style="stroke: #A80036; stroke-width: 1.0;"/><line style="stroke: #A80036; stroke-width: 1.5;" x1="262.75" x2="262.75" y1="545.9072" y2="565.9072"/><polygon fill="#A80036" points="258.75,555.9072,262.75,565.9072,266.75,555.9072,262.75,559.9072" style="stroke: #A80036; stroke-width: 1.0;"/><line style="stroke: #A80036; stroke-width: 1.5;" x1="262.75" x2="262.75" y1="600.04" y2="610.04"/><line style="stroke: #A80036; stroke-width: 1.5;" x1="262.75" x2="373.25" y1="610.04" y2="610.04"/><polygon fill="#A80036" points="369.25,580.9736,373.25,570.9736,377.25,580.9736,373.25,576.9736" style="stroke: #A80036; stroke-width: 1.5;"/><line style="stroke: #A80036; stroke-width: 1.5;" x1="373.25" x2="373.25" y1="533.9072" y2="610.04"/><line style="stroke: #A80036; stroke-width: 1.5;" x1="373.25" x2="344.25" y1="533.9072" y2="533.9072"/><polygon fill="#A80036" points="354.25,529.9072,344.25,533.9072,354.25,537.9072,350.25,533.9072" style="stroke: #A80036; stroke-width: 1.0;"/><line style="stroke: #A80036; stroke-width: 1.5;" x1="181.25" x2="152.25" y1="533.9072" y2="533.9072"/><polygon fill="#A80036" points="148.25,566.9736,152.25,576.9736,156.25,566.9736,152.25,570.9736" style="stroke: #A80036; stroke-width: 1.5;"/><line style="stroke: #A80036; stroke-width: 1.5;" x1="152.25" x2="152.25" y1="533.9072" y2="622.04"/><line style="stroke: #A80036; stroke-width: 1.5;" x1="152.25" x2="404.75" y1="622.04" y2="622.04"/><line style="stroke: #A80036; stroke-width: 1.5;" x1="404.75" x2="404.75" y1="435.7744" y2="622.04"/><line style="stroke: #A80036; stroke-width: 1.5;" x1="404.75" x2="383.75" y1="435.7744" y2="435.7744"/><polygon fill="#A80036" points="393.75,431.7744,383.75,435.7744,393.75,439.7744,389.75,435.7744" style="stroke: #A80036; stroke-width: 1.0;"/><line style="stroke: #A80036; stroke-width: 1.5;" x1="262.75" x2="262.75" y1="501.9072" y2="521.9072"/><polygon fill="#A80036" points="258.75,511.9072,262.75,521.9072,266.75,511.9072,262.75,515.9072" style="stroke: #A80036; stroke-width: 1.0;"/><line style="stroke: #A80036; stroke-width: 1.5;" x1="262.75" x2="262.75" y1="447.7744" y2="467.7744"/><polygon fill="#A80036" points="258.75,457.7744,262.75,467.7744,266.75,457.7744,262.75,461.7744" style="stroke: #A80036; stroke-width: 1.0;"/><line style="stroke: #A80036; stroke-width: 1.5;" x1="141.75" x2="120.75" y1="435.7744" y2="435.7744"/><polygon fill="#A80036" points="116.75,524.4072,120.75,534.4072,124.75,524.4072,120.75,528.4072" style="stroke: #A80036; stroke-width: 1.5;"/><line style="stroke: #A80036; stroke-width: 1.5;" x1="120.75" x2="120.75" y1="435.7744" y2="644.04"/><line style="stroke: #A80036; stroke-width: 1.5;" x1="120.75" x2="262.75" y1="644.04" y2="644.04"/><line style="stroke: #A80036; stroke-width: 1.5;" x1="262.75" x2="262.75" y1="644.04" y2="664.04"/><polygon fill="#A80036" points="258.75,654.04,262.75,664.04,266.75,654.04,262.75,658.04" style="stroke: #A80036; stroke-width: 1.0;"/><line style="stroke: #A80036; stroke-width: 1.5;" x1="262.75" x2="262.75" y1="403.7744" y2="423.7744"/><polygon fill="#A80036" points="258.75,413.7744,262.75,423.7744,266.75,413.7744,262.75,417.7744" style="stroke: #A80036; stroke-width: 1.0;"/><line style="stroke: #A80036; stroke-width: 1.5;" x1="262.75" x2="262.75" y1="688.04" y2="712.5176"/><polygon fill="#A80036" points="258.75,702.5176,262.75,712.5176,266.75,702.5176,262.75,706.5176" style="stroke: #A80036; stroke-width: 1.0;"/><line style="stroke: #A80036; stroke-width: 1.5;" x1="334.25" x2="376.25" y1="676.04" y2="676.04"/><polygon fill="#A80036" points="372.25,719.584,376.25,729.584,380.25,719.584,376.25,723.584" style="stroke: #A80036; stroke-width: 1.5;"/><line style="stroke: #A80036; stroke-width: 1.5;" x1="376.25" x2="376.25" y1="676.04" y2="778.6504"/><line style="stroke: #A80036; stroke-width: 1.5;" x1="376.25" x2="274.75" y1="778.6504" y2="778.6504"/><polygon fill="#A80036" points="284.75,774.6504,274.75,778.6504,284.75,782.6504,280.75,778.6504" style="stroke: #A80036; stroke-width: 1.0;"/><line style="stroke: #A80036; stroke-width: 1.5;" x1="262.75" x2="262.75" y1="746.6504" y2="766.6504"/><polygon fill="#A80036" points="258.75,756.6504,262.75,766.6504,266.75,756.6504,262.75,760.6504" style="stroke: #A80036; stroke-width: 1.0;"/><line style="stroke: #A80036; stroke-width: 1.5;" x1="262.75" x2="262.75" y1="790.6504" y2="810.6504"/><polygon fill="#A80036" points="258.75,800.6504,262.75,810.6504,266.75,800.6504,262.75,804.6504" style="stroke: #A80036; stroke-width: 1.0;"/><line style="stroke: #A80036; stroke-width: 1.5;" x1="262.75" x2="262.75" y1="1138.0039" y2="1173.0039"/><polygon fill="#A80036" points="258.75,1163.0039,262.75,1173.0039,266.75,1163.0039,262.75,1167.0039" style="stroke: #A80036; stroke-width: 1.0;"/><line style="stroke: #A80036; stroke-width: 1.5;" x1="262.75" x2="262.75" y1="1079.3936" y2="1103.8711"/><polygon fill="#A80036" points="258.75,1093.8711,262.75,1103.8711,266.75,1093.8711,262.75,1097.8711" style="stroke: #A80036; stroke-width: 1.0;"/><line style="stroke: #A80036; stroke-width: 1.5;" x1="290.75" x2="371.75" y1="1067.3936" y2="1067.3936"/><polygon fill="#A80036" points="367.75,1145.5039,371.75,1155.5039,375.75,1145.5039,371.75,1149.5039" style="stroke: #A80036; stroke-width: 1.5;"/><line style="stroke: #A80036; stroke-width: 1.5;" x1="371.75" x2="371.75" y1="1067.3936" y2="1239.1367"/><line style="stroke: #A80036; stroke-width: 1.5;" x1="371.75" x2="274.75" y1="1239.1367" y2="1239.1367"/><polygon fill="#A80036" points="284.75,1235.1367,274.75,1239.1367,284.75,1243.1367,280.75,1239.1367" style="stroke: #A80036; stroke-width: 1.0;"/><line style="stroke: #A80036; stroke-width: 1.5;" x1="262.75" x2="262.75" y1="1207.1367" y2="1227.1367"/><polygon fill="#A80036" points="258.75,1217.1367,262.75,1227.1367,266.75,1217.1367,262.75,1221.1367" style="stroke: #A80036; stroke-width: 1.0;"/><line style="stroke: #A80036; stroke-width: 1.5;" x1="262.75" x2="262.75" y1="1035.3936" y2="1055.3936"/><polygon fill="#A80036" points="258.75,1045.3936,262.75,1055.3936,266.75,1045.3936,262.75,1049.3936" style="stroke: #A80036; stroke-width: 1.0;"/><line style="stroke: #A80036; stroke-width: 1.5;" x1="262.75" x2="262.75" y1="981.2607" y2="1001.2607"/><polygon fill="#A80036" points="258.75,991.2607,262.75,1001.2607,266.75,991.2607,262.75,995.2607" style="stroke: #A80036; stroke-width: 1.0;"/><line style="stroke: #A80036; stroke-width: 1.5;" x1="262.75" x2="262.75" y1="1251.1367" y2="1261.1367"/><line style="stroke: #A80036; stroke-width: 1.5;" x1="262.75" x2="404.75" y1="1261.1367" y2="1261.1367"/><polygon fill="#A80036" points="400.75,1118.9375,404.75,1108.9375,408.75,1118.9375,404.75,1114.9375" style="stroke: #A80036; stroke-width: 1.5;"/><line style="stroke: #A80036; stroke-width: 1.5;" x1="404.75" x2="404.75" y1="969.2607" y2="1261.1367"/><line style="stroke: #A80036; stroke-width: 1.5;" x1="404.75" x2="383.75" y1="969.2607" y2="969.2607"/><polygon fill="#A80036" points="393.75,965.2607,383.75,969.2607,393.75,973.2607,389.75,969.2607" style="stroke: #A80036; stroke-width: 1.0;"/><line style="stroke: #A80036; stroke-width: 1.5;" x1="141.75" x2="120.75" y1="969.2607" y2="969.2607"/><polygon fill="#A80036" points="116.75,1104.9375,120.75,1114.9375,124.75,1104.9375,120.75,1108.9375" style="stroke: #A80036; stroke-width: 1.5;"/><line style="stroke: #A80036; stroke-width: 1.5;" x1="120.75" x2="120.75" y1="969.2607" y2="1273.1367"/><line style="stroke: #A80036; stroke-width: 1.5;" x1="120.75" x2="262.75" y1="1273.1367" y2="1273.1367"/><line style="stroke: #A80036; stroke-width: 1.5;" x1="262.75" x2="262.75" y1="1273.1367" y2="1293.1367"/><polygon fill="#A80036" points="258.75,1283.1367,262.75,1293.1367,266.75,1283.1367,262.75,1287.1367" style="stroke: #A80036; stroke-width: 1.0;"/><line style="stroke: #A80036; stroke-width: 1.5;" x1="262.75" x2="262.75" y1="932.7832" y2="957.2607"/><polygon fill="#A80036" points="258.75,947.2607,262.75,957.2607,266.75,947.2607,262.75,951.2607" style="stroke: #A80036; stroke-width: 1.0;"/><line style="stroke: #A80036; stroke-width: 1.5;" x1="372.25" x2="414.75" y1="920.7832" y2="920.7832"/><polygon fill="#A80036" points="410.75,1098.9375,414.75,1108.9375,418.75,1098.9375,414.75,1102.9375" style="stroke: #A80036; stroke-width: 1.5;"/><line style="stroke: #A80036; stroke-width: 1.5;" x1="414.75" x2="414.75" y1="920.7832" y2="1305.1367"/><line style="stroke: #A80036; stroke-width: 1.5;" x1="414.75" x2="274.75" y1="1305.1367" y2="1305.1367"/><polygon fill="#A80036" points="284.75,1301.1367,274.75,1305.1367,284.75,1309.1367,280.75,1305.1367" style="stroke: #A80036; stroke-width: 1.0;"/><line style="stroke: #A80036; stroke-width: 1.5;" x1="262.75" x2="262.75" y1="1409.6143" y2="1434.0918"/><polygon fill="#A80036" points="258.75,1424.0918,262.75,1434.0918,266.75,1424.0918,262.75,1428.0918" style="stroke: #A80036; stroke-width: 1.0;"/><line style="stroke: #A80036; stroke-width: 1.5;" x1="340.75" x2="365.75" y1="1397.6143" y2="1397.6143"/><polygon fill="#A80036" points="361.75,1441.1582,365.75,1451.1582,369.75,1441.1582,365.75,1445.1582" style="stroke: #A80036; stroke-width: 1.5;"/><line style="stroke: #A80036; stroke-width: 1.5;" x1="365.75" x2="365.75" y1="1397.6143" y2="1500.2246"/><line style="stroke: #A80036; stroke-width: 1.5;" x1="365.75" x2="274.75" y1="1500.2246" y2="1500.2246"/><polygon fill="#A80036" points="284.75,1496.2246,274.75,1500.2246,284.75,1504.2246,280.75,1500.2246" style="stroke: #A80036; stroke-width: 1.0;"/><line style="stroke: #A80036; stroke-width: 1.5;" x1="262.75" x2="262.75" y1="1468.2246" y2="1488.2246"/><polygon fill="#A80036" points="258.75,1478.2246,262.75,1488.2246,266.75,1478.2246,262.75,1482.2246" style="stroke: #A80036; stroke-width: 1.0;"/><line style="stroke: #A80036; stroke-width: 1.5;" x1="262.75" x2="262.75" y1="1361.1367" y2="1385.6143"/><polygon fill="#A80036" points="258.75,1375.6143,262.75,1385.6143,266.75,1375.6143,262.75,1379.6143" style="stroke: #A80036; stroke-width: 1.0;"/><line style="stroke: #A80036; stroke-width: 1.5;" x1="291.25" x2="387.75" y1="1349.1367" y2="1349.1367"/><polygon fill="#A80036" points="383.75,1441.1582,387.75,1451.1582,391.75,1441.1582,387.75,1445.1582" style="stroke: #A80036; stroke-width: 1.5;"/><line style="stroke: #A80036; stroke-width: 1.5;" x1="387.75" x2="387.75" y1="1349.1367" y2="1544.2246"/><line style="stroke: #A80036; stroke-width: 1.5;" x1="387.75" x2="274.75" y1="1544.2246" y2="1544.2246"/><polygon fill="#A80036" points="284.75,1540.2246,274.75,1544.2246,284.75,1548.2246,280.75,1544.2246" style="stroke: #A80036; stroke-width: 1.0;"/><line style="stroke: #A80036; stroke-width: 1.5;" x1="262.75" x2="262.75" y1="1512.2246" y2="1532.2246"/><polygon fill="#A80036" points="258.75,1522.2246,262.75,1532.2246,266.75,1522.2246,262.75,1526.2246" style="stroke: #A80036; stroke-width: 1.0;"/><line style="stroke: #A80036; stroke-width: 1.5;" x1="262.75" x2="262.75" y1="1317.1367" y2="1337.1367"/><polygon fill="#A80036" points="258.75,1327.1367,262.75,1337.1367,266.75,1327.1367,262.75,1331.1367" style="stroke: #A80036; stroke-width: 1.0;"/><line style="stroke: #A80036; stroke-width: 1.5;" x1="262.75" x2="262.75" y1="888.7832" y2="908.7832"/><polygon fill="#A80036" points="258.75,898.7832,262.75,908.7832,266.75,898.7832,262.75,902.7832" style="stroke: #A80036; stroke-width: 1.0;"/><line style="stroke: #A80036; stroke-width: 1.5;" x1="262.75" x2="262.75" y1="1556.2246" y2="1566.2246"/><line style="stroke: #A80036; stroke-width: 1.5;" x1="262.75" x2="438.75" y1="1566.2246" y2="1566.2246"/><polygon fill="#A80036" points="434.75,1233.9814,438.75,1223.9814,442.75,1233.9814,438.75,1229.9814" style="stroke: #A80036; stroke-width: 1.5;"/><line style="stroke: #A80036; stroke-width: 1.5;" x1="438.75" x2="438.75" y1="876.7832" y2="1566.2246"/><line style="stroke: #A80036; stroke-width: 1.5;" x1="438.75" x2="331.75" y1="876.7832" y2="876.7832"/><polygon fill="#A80036" points="341.75,872.7832,331.75,876.7832,341.75,880.7832,337.75,876.7832" style="stroke: #A80036; stroke-width: 1.0;"/><line style="stroke: #A80036; stroke-width: 1.5;" x1="193.75" x2="75.75" y1="876.7832" y2="876.7832"/><line style="stroke: #A80036; stroke-width: 1.5;" x1="75.75" x2="75.75" y1="876.7832" y2="908.7832"/><polygon fill="#A80036" points="71.75,898.7832,75.75,908.7832,79.75,898.7832,75.75,902.7832" style="stroke: #A80036; stroke-width: 1.0;"/><line style="stroke: #A80036; stroke-width: 1.5;" x1="262.75" x2="262.75" y1="844.7832" y2="864.7832"/><polygon fill="#A80036" points="258.75,854.7832,262.75,864.7832,266.75,854.7832,262.75,858.7832" style="stroke: #A80036; stroke-width: 1.0;"/><!--MD5=[54c4a73685e2df2149ef62129358467d]
@startuml

Title Append vendor requested options algorithm (Kea 1.7.11)

:get vendor id from query vivso option;
:get vendor id from response vivso option;
if (vendor id) then (no)
  :return;
  stop
else (yes)
endif

:get configured option list;

:get option request list (ORO) from query DOCSIS vendor option;

while (for each item from configured option list)
  :get configured options in vendor id space;
  while (for each persistent option)
    :push back option code to ORO;
  endwhile
endwhile

if (response vivso option) then (no)
  :create vivso option for vendor id;
else (yes)
endif

:added = false;
while (for each code in ORO)
  if (sub-option is not set in vivso option) then (yes)
    while (for each item from configured option list)
      :get configured options in vendor id space;
      if (found) then (first)
        :add sub-option to vivso option;
        :added = true;
      else (not found or already found)
      endif
    endwhile
  else (no)
  endif
  if (added) then (yes)
    if (vivso option in response) then (no)
      :add vivso option in response;
    else (yes)
    endif
  else (no)
  endif
endwhile
->done;
stop

@enduml

PlantUML version 1.2020.15(Sun Jun 28 13:39:45 CEST 2020)
(GPL source distribution)
Java Runtime: OpenJDK Runtime Environment
JVM: OpenJDK 64-Bit Server VM
Default Encoding: UTF-8
Language: en
Country: US
--></g></svg>