<?xml version="1.0" encoding="UTF-8" standalone="no"?><svg xmlns="http://www.w3.org/2000/svg" xmlns:xlink="http://www.w3.org/1999/xlink" contentScriptType="application/ecmascript" contentStyleType="text/css" height="797px" preserveAspectRatio="none" style="width:375px;height:797px;" version="1.1" viewBox="0 0 375 797" width="375px" zoomAndPan="magnify"><defs><filter height="300%" id="fpz5149x5yof3" width="300%" x="-1" y="-1"><feGaussianBlur result="blurOut" stdDeviation="2.0"/><feColorMatrix in="blurOut" result="blurOut2" type="matrix" values="0 0 0 0 0 0 0 0 0 0 0 0 0 0 0 0 0 0 .4 0"/><feOffset dx="4.0" dy="4.0" in="blurOut2" result="blurOut3"/><feBlend in="SourceGraphic" in2="blurOut3" mode="normal"/></filter></defs><g><text fill="#000000" font-family="sans-serif" font-size="18" lengthAdjust="spacingAndGlyphs" textLength="229" x="72" y="27.4023">Append requested options</text><rect fill="#FEFECE" filter="url(#fpz5149x5yof3)" height="34.1328" rx="12.5" ry="12.5" style="stroke: #A80036; stroke-width: 1.5;" width="163" x="100.5" y="32.1992"/><text fill="#000000" font-family="sans-serif" font-size="12" lengthAdjust="spacingAndGlyphs" textLength="143" x="110.5" y="53.8008">get configured option list</text><rect fill="#FEFECE" filter="url(#fpz5149x5yof3)" height="34.1328" rx="12.5" ry="12.5" style="stroke: #A80036; stroke-width: 1.5;" width="272" x="46" y="86.332"/><text fill="#000000" font-family="sans-serif" font-size="12" lengthAdjust="spacingAndGlyphs" textLength="252" x="56" y="107.9336">get parameter request list (PRL) from query</text><rect fill="#FEFECE" filter="url(#fpz5149x5yof3)" height="34.1328" rx="12.5" ry="12.5" style="stroke: #A80036; stroke-width: 1.5;" width="242" x="61" y="184.4648"/><text fill="#000000" font-family="sans-serif" font-size="12" lengthAdjust="spacingAndGlyphs" textLength="222" x="71" y="206.0664">get configured options in dhcp4 space</text><rect fill="#FEFECE" filter="url(#fpz5149x5yof3)" height="34.1328" rx="12.5" ry="12.5" style="stroke: #A80036; stroke-width: 1.5;" width="192" x="86" y="282.5977"/><text fill="#000000" font-family="sans-serif" font-size="12" lengthAdjust="spacingAndGlyphs" textLength="172" x="96" y="304.1992">push back option code to PRL</text><polygon fill="#FEFECE" filter="url(#fpz5149x5yof3)" points="112.5,238.5977,251.5,238.5977,263.5,250.5977,251.5,262.5977,112.5,262.5977,100.5,250.5977,112.5,238.5977" style="stroke: #A80036; stroke-width: 1.5;"/><text fill="#000000" font-family="sans-serif" font-size="11" lengthAdjust="spacingAndGlyphs" textLength="139" x="112.5" y="254.7549">for each persistent option</text><polygon fill="#FEFECE" filter="url(#fpz5149x5yof3)" points="73,140.4648,291,140.4648,303,152.4648,291,164.4648,73,164.4648,61,152.4648,73,140.4648" style="stroke: #A80036; stroke-width: 1.5;"/><text fill="#000000" font-family="sans-serif" font-size="11" lengthAdjust="spacingAndGlyphs" textLength="218" x="73" y="156.6221">for each item from configured option list</text><rect fill="#FEFECE" filter="url(#fpz5149x5yof3)" height="34.1328" rx="12.5" ry="12.5" style="stroke: #A80036; stroke-width: 1.5;" width="242" x="61" y="517.208"/><text fill="#000000" font-family="sans-serif" font-size="12" lengthAdjust="spacingAndGlyphs" textLength="222" x="71" y="538.8096">get configured options in dhcp4 space</text><rect fill="#FEFECE" filter="url(#fpz5149x5yof3)" height="34.1328" rx="12.5" ry="12.5" style="stroke: #A80036; stroke-width: 1.5;" width="155" x="104.5" y="619.8184"/><text fill="#000000" font-family="sans-serif" font-size="12" lengthAdjust="spacingAndGlyphs" textLength="135" x="114.5" y="641.4199">add option to response</text><polygon fill="#FEFECE" filter="url(#fpz5149x5yof3)" points="166,571.3408,198,571.3408,210,583.3408,198,595.3408,166,595.3408,154,583.3408,166,571.3408" style="stroke: #A80036; stroke-width: 1.5;"/><text fill="#000000" font-family="sans-serif" font-size="11" lengthAdjust="spacingAndGlyphs" textLength="22" x="186" y="605.9756">first</text><text fill="#000000" font-family="sans-serif" font-size="11" lengthAdjust="spacingAndGlyphs" textLength="32" x="166" y="587.498">found</text><text fill="#000000" font-family="sans-serif" font-size="11" lengthAdjust="spacingAndGlyphs" textLength="145" x="210" y="581.0205">not found or already found</text><polygon fill="#FEFECE" filter="url(#fpz5149x5yof3)" points="182,673.9512,194,685.9512,182,697.9512,170,685.9512,182,673.9512" style="stroke: #A80036; stroke-width: 1.5;"/><polygon fill="#FEFECE" filter="url(#fpz5149x5yof3)" points="73,473.208,291,473.208,303,485.208,291,497.208,73,497.208,61,485.208,73,473.208" style="stroke: #A80036; stroke-width: 1.5;"/><text fill="#000000" font-family="sans-serif" font-size="11" lengthAdjust="spacingAndGlyphs" textLength="218" x="73" y="489.3652">for each item from configured option list</text><polygon fill="#FEFECE" filter="url(#fpz5149x5yof3)" points="105.5,424.7305,258.5,424.7305,270.5,436.7305,258.5,448.7305,105.5,448.7305,93.5,436.7305,105.5,424.7305" style="stroke: #A80036; stroke-width: 1.5;"/><text fill="#000000" font-family="sans-serif" font-size="11" lengthAdjust="spacingAndGlyphs" textLength="18" x="186" y="459.3652">yes</text><text fill="#000000" font-family="sans-serif" font-size="11" lengthAdjust="spacingAndGlyphs" textLength="153" x="105.5" y="440.8877">option is not set in response</text><text fill="#000000" font-family="sans-serif" font-size="11" lengthAdjust="spacingAndGlyphs" textLength="14" x="270.5" y="434.4102">no</text><polygon fill="#FEFECE" filter="url(#fpz5149x5yof3)" points="182,739.9512,194,751.9512,182,763.9512,170,751.9512,182,739.9512" style="stroke: #A80036; stroke-width: 1.5;"/><polygon fill="#FEFECE" filter="url(#fpz5149x5yof3)" points="128,380.7305,236,380.7305,248,392.7305,236,404.7305,128,404.7305,116,392.7305,128,380.7305" style="stroke: #A80036; stroke-width: 1.5;"/><text fill="#000000" font-family="sans-serif" font-size="11" lengthAdjust="spacingAndGlyphs" textLength="108" x="128" y="396.8877">for each code in PRL</text><ellipse cx="24" cy="435.7305" fill="#FFFFFF" filter="url(#fpz5149x5yof3)" rx="11" ry="11" style="stroke: #000000; stroke-width: 1.0;"/><ellipse cx="24" cy="435.7305" fill="#000000" rx="6" ry="6" style="stroke: #7F7F7F; stroke-width: 1.0;"/><line style="stroke: #A80036; stroke-width: 1.5;" x1="182" x2="182" y1="66.332" y2="86.332"/><polygon fill="#A80036" points="178,76.332,182,86.332,186,76.332,182,80.332" style="stroke: #A80036; stroke-width: 1.0;"/><line style="stroke: #A80036; stroke-width: 1.5;" x1="182" x2="182" y1="262.5977" y2="282.5977"/><polygon fill="#A80036" points="178,272.5977,182,282.5977,186,272.5977,182,276.5977" style="stroke: #A80036; stroke-width: 1.0;"/><line style="stroke: #A80036; stroke-width: 1.5;" x1="182" x2="182" y1="316.7305" y2="326.7305"/><line style="stroke: #A80036; stroke-width: 1.5;" x1="182" x2="290" y1="326.7305" y2="326.7305"/><polygon fill="#A80036" points="286,297.6641,290,287.6641,294,297.6641,290,293.6641" style="stroke: #A80036; stroke-width: 1.5;"/><line style="stroke: #A80036; stroke-width: 1.5;" x1="290" x2="290" y1="250.5977" y2="326.7305"/><line style="stroke: #A80036; stroke-width: 1.5;" x1="290" x2="263.5" y1="250.5977" y2="250.5977"/><polygon fill="#A80036" points="273.5,246.5977,263.5,250.5977,273.5,254.5977,269.5,250.5977" style="stroke: #A80036; stroke-width: 1.0;"/><line style="stroke: #A80036; stroke-width: 1.5;" x1="100.5" x2="74" y1="250.5977" y2="250.5977"/><polygon fill="#A80036" points="70,283.6641,74,293.6641,78,283.6641,74,287.6641" style="stroke: #A80036; stroke-width: 1.5;"/><line style="stroke: #A80036; stroke-width: 1.5;" x1="74" x2="74" y1="250.5977" y2="338.7305"/><line style="stroke: #A80036; stroke-width: 1.5;" x1="74" x2="315" y1="338.7305" y2="338.7305"/><line style="stroke: #A80036; stroke-width: 1.5;" x1="315" x2="315" y1="152.4648" y2="338.7305"/><line style="stroke: #A80036; stroke-width: 1.5;" x1="315" x2="303" y1="152.4648" y2="152.4648"/><polygon fill="#A80036" points="313,148.4648,303,152.4648,313,156.4648,309,152.4648" style="stroke: #A80036; stroke-width: 1.0;"/><line style="stroke: #A80036; stroke-width: 1.5;" x1="182" x2="182" y1="218.5977" y2="238.5977"/><polygon fill="#A80036" points="178,228.5977,182,238.5977,186,228.5977,182,232.5977" style="stroke: #A80036; stroke-width: 1.0;"/><line style="stroke: #A80036; stroke-width: 1.5;" x1="182" x2="182" y1="164.4648" y2="184.4648"/><polygon fill="#A80036" points="178,174.4648,182,184.4648,186,174.4648,182,178.4648" style="stroke: #A80036; stroke-width: 1.0;"/><line style="stroke: #A80036; stroke-width: 1.5;" x1="61" x2="49" y1="152.4648" y2="152.4648"/><polygon fill="#A80036" points="45,241.0977,49,251.0977,53,241.0977,49,245.0977" style="stroke: #A80036; stroke-width: 1.5;"/><line style="stroke: #A80036; stroke-width: 1.5;" x1="49" x2="49" y1="152.4648" y2="360.7305"/><line style="stroke: #A80036; stroke-width: 1.5;" x1="49" x2="182" y1="360.7305" y2="360.7305"/><line style="stroke: #A80036; stroke-width: 1.5;" x1="182" x2="182" y1="360.7305" y2="380.7305"/><polygon fill="#A80036" points="178,370.7305,182,380.7305,186,370.7305,182,374.7305" style="stroke: #A80036; stroke-width: 1.0;"/><line style="stroke: #A80036; stroke-width: 1.5;" x1="182" x2="182" y1="120.4648" y2="140.4648"/><polygon fill="#A80036" points="178,130.4648,182,140.4648,186,130.4648,182,134.4648" style="stroke: #A80036; stroke-width: 1.0;"/><line style="stroke: #A80036; stroke-width: 1.5;" x1="182" x2="182" y1="595.3408" y2="619.8184"/><polygon fill="#A80036" points="178,609.8184,182,619.8184,186,609.8184,182,613.8184" style="stroke: #A80036; stroke-width: 1.0;"/><line style="stroke: #A80036; stroke-width: 1.5;" x1="210" x2="269.5" y1="583.3408" y2="583.3408"/><polygon fill="#A80036" points="265.5,626.8848,269.5,636.8848,273.5,626.8848,269.5,630.8848" style="stroke: #A80036; stroke-width: 1.5;"/><line style="stroke: #A80036; stroke-width: 1.5;" x1="269.5" x2="269.5" y1="583.3408" y2="685.9512"/><line style="stroke: #A80036; stroke-width: 1.5;" x1="269.5" x2="194" y1="685.9512" y2="685.9512"/><polygon fill="#A80036" points="204,681.9512,194,685.9512,204,689.9512,200,685.9512" style="stroke: #A80036; stroke-width: 1.0;"/><line style="stroke: #A80036; stroke-width: 1.5;" x1="182" x2="182" y1="653.9512" y2="673.9512"/><polygon fill="#A80036" points="178,663.9512,182,673.9512,186,663.9512,182,667.9512" style="stroke: #A80036; stroke-width: 1.0;"/><line style="stroke: #A80036; stroke-width: 1.5;" x1="182" x2="182" y1="551.3408" y2="571.3408"/><polygon fill="#A80036" points="178,561.3408,182,571.3408,186,561.3408,182,565.3408" style="stroke: #A80036; stroke-width: 1.0;"/><line style="stroke: #A80036; stroke-width: 1.5;" x1="182" x2="182" y1="497.208" y2="517.208"/><polygon fill="#A80036" points="178,507.208,182,517.208,186,507.208,182,511.208" style="stroke: #A80036; stroke-width: 1.0;"/><line style="stroke: #A80036; stroke-width: 1.5;" x1="182" x2="182" y1="697.9512" y2="707.9512"/><line style="stroke: #A80036; stroke-width: 1.5;" x1="182" x2="315" y1="707.9512" y2="707.9512"/><polygon fill="#A80036" points="311,600.3184,315,590.3184,319,600.3184,315,596.3184" style="stroke: #A80036; stroke-width: 1.5;"/><line style="stroke: #A80036; stroke-width: 1.5;" x1="315" x2="315" y1="485.208" y2="707.9512"/><line style="stroke: #A80036; stroke-width: 1.5;" x1="315" x2="303" y1="485.208" y2="485.208"/><polygon fill="#A80036" points="313,481.208,303,485.208,313,489.208,309,485.208" style="stroke: #A80036; stroke-width: 1.0;"/><line style="stroke: #A80036; stroke-width: 1.5;" x1="61" x2="49" y1="485.208" y2="485.208"/><polygon fill="#A80036" points="45,586.3184,49,596.3184,53,586.3184,49,590.3184" style="stroke: #A80036; stroke-width: 1.5;"/><line style="stroke: #A80036; stroke-width: 1.5;" x1="49" x2="49" y1="485.208" y2="719.9512"/><line style="stroke: #A80036; stroke-width: 1.5;" x1="49" x2="182" y1="719.9512" y2="719.9512"/><line style="stroke: #A80036; stroke-width: 1.5;" x1="182" x2="182" y1="719.9512" y2="739.9512"/><polygon fill="#A80036" points="178,729.9512,182,739.9512,186,729.9512,182,733.9512" style="stroke: #A80036; stroke-width: 1.0;"/><line style="stroke: #A80036; stroke-width: 1.5;" x1="182" x2="182" y1="448.7305" y2="473.208"/><polygon fill="#A80036" points="178,463.208,182,473.208,186,463.208,182,467.208" style="stroke: #A80036; stroke-width: 1.0;"/><line style="stroke: #A80036; stroke-width: 1.5;" x1="270.5" x2="325" y1="436.7305" y2="436.7305"/><polygon fill="#A80036" points="321,580.3184,325,590.3184,329,580.3184,325,584.3184" style="stroke: #A80036; stroke-width: 1.5;"/><line style="stroke: #A80036; stroke-width: 1.5;" x1="325" x2="325" y1="436.7305" y2="751.9512"/><line style="stroke: #A80036; stroke-width: 1.5;" x1="325" x2="194" y1="751.9512" y2="751.9512"/><polygon fill="#A80036" points="204,747.9512,194,751.9512,204,755.9512,200,751.9512" style="stroke: #A80036; stroke-width: 1.0;"/><line style="stroke: #A80036; stroke-width: 1.5;" x1="182" x2="182" y1="404.7305" y2="424.7305"/><polygon fill="#A80036" points="178,414.7305,182,424.7305,186,414.7305,182,418.7305" style="stroke: #A80036; stroke-width: 1.0;"/><line style="stroke: #A80036; stroke-width: 1.5;" x1="182" x2="182" y1="763.9512" y2="773.9512"/><line style="stroke: #A80036; stroke-width: 1.5;" x1="182" x2="349" y1="773.9512" y2="773.9512"/><polygon fill="#A80036" points="345,588.3184,349,578.3184,353,588.3184,349,584.3184" style="stroke: #A80036; stroke-width: 1.5;"/><line style="stroke: #A80036; stroke-width: 1.5;" x1="349" x2="349" y1="392.7305" y2="773.9512"/><line style="stroke: #A80036; stroke-width: 1.5;" x1="349" x2="248" y1="392.7305" y2="392.7305"/><polygon fill="#A80036" points="258,388.7305,248,392.7305,258,396.7305,254,392.7305" style="stroke: #A80036; stroke-width: 1.0;"/><line style="stroke: #A80036; stroke-width: 1.5;" x1="116" x2="24" y1="392.7305" y2="392.7305"/><line style="stroke: #A80036; stroke-width: 1.5;" x1="24" x2="24" y1="392.7305" y2="424.7305"/><polygon fill="#A80036" points="20,414.7305,24,424.7305,28,414.7305,24,418.7305" style="stroke: #A80036; stroke-width: 1.0;"/><!--MD5=[a7f308aa87ac28ab1e7482489b6cd310]
@startuml

Title Append requested options

:get configured option list;

:get parameter request list (PRL) from query;

while (for each item from configured option list)
  :get configured options in dhcp4 space;
  while (for each persistent option)
    :push back option code to PRL;
  endwhile
endwhile

while (for each code in PRL)
  if (option is not set in response) then (yes)
    while (for each item from configured option list)
      :get configured options in dhcp4 space;
      if (found) then (first)
        :add option to response;
      else (not found or already found)
      endif
    endwhile
  else (no)
  endif
endwhile
->done;
stop

@enduml

PlantUML version 1.2020.15(Sun Jun 28 13:39:45 CEST 2020)
(GPL source distribution)
Java Runtime: OpenJDK Runtime Environment
JVM: OpenJDK 64-Bit Server VM
Default Encoding: UTF-8
Language: en
Country: US
--></g></svg>