<?xml version="1.0" encoding="UTF-8" standalone="no"?><svg xmlns="http://www.w3.org/2000/svg" xmlns:xlink="http://www.w3.org/1999/xlink" contentScriptType="application/ecmascript" contentStyleType="text/css" height="1473px" preserveAspectRatio="none" style="width:637px;height:1473px;" version="1.1" viewBox="0 0 637 1473" width="637px" zoomAndPan="magnify"><defs><filter height="300%" id="f16sajmdzcjahq" width="300%" x="-1" y="-1"><feGaussianBlur result="blurOut" stdDeviation="2.0"/><feColorMatrix in="blurOut" result="blurOut2" type="matrix" values="0 0 0 0 0 0 0 0 0 0 0 0 0 0 0 0 0 0 .4 0"/><feOffset dx="4.0" dy="4.0" in="blurOut2" result="blurOut3"/><feBlend in="SourceGraphic" in2="blurOut3" mode="normal"/></filter></defs><g><text fill="#000000" font-family="sans-serif" font-size="18" lengthAdjust="spacingAndGlyphs" textLength="613" x="12" y="27.4023">buildCfgOptionList: build configured option list algorithm (Kea 1.7.11)</text><ellipse cx="289.25" cy="41.1992" fill="#000000" filter="url(#f16sajmdzcjahq)" rx="10" ry="10" style="stroke: none; stroke-width: 1.0;"/><rect fill="#FEFECE" filter="url(#f16sajmdzcjahq)" height="34.1328" rx="12.5" ry="12.5" style="stroke: #A80036; stroke-width: 1.5;" width="213" x="182.75" y="71.1992"/><text fill="#000000" font-family="sans-serif" font-size="12" lengthAdjust="spacingAndGlyphs" textLength="193" x="192.75" y="92.8008">Get (empty) configured option list</text><rect fill="#FEFECE" filter="url(#f16sajmdzcjahq)" height="34.1328" rx="12.5" ry="12.5" style="stroke: #A80036; stroke-width: 1.5;" width="55" x="261.75" y="173.8096"/><text fill="#000000" font-family="sans-serif" font-size="12" lengthAdjust="spacingAndGlyphs" textLength="35" x="271.75" y="195.4111">return</text><ellipse cx="289.25" cy="247.376" fill="#FFFFFF" filter="url(#f16sajmdzcjahq)" rx="11" ry="11" style="stroke: #000000; stroke-width: 1.0;"/><ellipse cx="289.25" cy="247.376" fill="#000000" rx="6" ry="6" style="stroke: #7F7F7F; stroke-width: 1.0;"/><polygon fill="#FEFECE" filter="url(#f16sajmdzcjahq)" points="262.25,125.332,316.25,125.332,328.25,137.332,316.25,149.332,262.25,149.332,250.25,137.332,262.25,125.332" style="stroke: #A80036; stroke-width: 1.5;"/><text fill="#000000" font-family="sans-serif" font-size="11" lengthAdjust="spacingAndGlyphs" textLength="18" x="293.25" y="159.9668">yes</text><text fill="#000000" font-family="sans-serif" font-size="11" lengthAdjust="spacingAndGlyphs" textLength="54" x="262.25" y="141.4893">no subnet</text><text fill="#000000" font-family="sans-serif" font-size="11" lengthAdjust="spacingAndGlyphs" textLength="14" x="328.25" y="135.0117">no</text><rect fill="#FEFECE" filter="url(#f16sajmdzcjahq)" height="34.1328" rx="12.5" ry="12.5" style="stroke: #A80036; stroke-width: 1.5;" width="219" x="179.75" y="348.8535"/><text fill="#000000" font-family="sans-serif" font-size="12" lengthAdjust="spacingAndGlyphs" textLength="199" x="189.75" y="370.4551">push back host configured options</text><polygon fill="#FEFECE" filter="url(#f16sajmdzcjahq)" points="223.75,300.376,354.75,300.376,366.75,312.376,354.75,324.376,223.75,324.376,211.75,312.376,223.75,300.376" style="stroke: #A80036; stroke-width: 1.5;"/><text fill="#000000" font-family="sans-serif" font-size="11" lengthAdjust="spacingAndGlyphs" textLength="18" x="293.25" y="335.0107">yes</text><text fill="#000000" font-family="sans-serif" font-size="11" lengthAdjust="spacingAndGlyphs" textLength="131" x="223.75" y="316.5332">current host reservation</text><text fill="#000000" font-family="sans-serif" font-size="11" lengthAdjust="spacingAndGlyphs" textLength="14" x="366.75" y="310.0557">no</text><polygon fill="#FEFECE" filter="url(#f16sajmdzcjahq)" points="289.25,402.9863,301.25,414.9863,289.25,426.9863,277.25,414.9863,289.25,402.9863" style="stroke: #A80036; stroke-width: 1.5;"/><rect fill="#FEFECE" filter="url(#f16sajmdzcjahq)" height="34.1328" rx="12.5" ry="12.5" style="stroke: #A80036; stroke-width: 1.5;" width="188" x="195.25" y="495.4639"/><text fill="#000000" font-family="sans-serif" font-size="12" lengthAdjust="spacingAndGlyphs" textLength="168" x="205.25" y="517.0654">get pool of assigned address</text><rect fill="#FEFECE" filter="url(#f16sajmdzcjahq)" height="34.1328" rx="12.5" ry="12.5" style="stroke: #A80036; stroke-width: 1.5;" width="220" x="179.25" y="598.0742"/><text fill="#000000" font-family="sans-serif" font-size="12" lengthAdjust="spacingAndGlyphs" textLength="200" x="189.25" y="619.6758">push back pool configured options</text><polygon fill="#FEFECE" filter="url(#f16sajmdzcjahq)" points="277.25,549.5967,301.25,549.5967,313.25,561.5967,301.25,573.5967,277.25,573.5967,265.25,561.5967,277.25,549.5967" style="stroke: #A80036; stroke-width: 1.5;"/><text fill="#000000" font-family="sans-serif" font-size="11" lengthAdjust="spacingAndGlyphs" textLength="18" x="293.25" y="584.2314">yes</text><text fill="#000000" font-family="sans-serif" font-size="11" lengthAdjust="spacingAndGlyphs" textLength="24" x="277.25" y="565.7539">pool</text><text fill="#000000" font-family="sans-serif" font-size="11" lengthAdjust="spacingAndGlyphs" textLength="14" x="313.25" y="559.2764">no</text><polygon fill="#FEFECE" filter="url(#f16sajmdzcjahq)" points="289.25,652.207,301.25,664.207,289.25,676.207,277.25,664.207,289.25,652.207" style="stroke: #A80036; stroke-width: 1.5;"/><polygon fill="#FEFECE" filter="url(#f16sajmdzcjahq)" points="242.25,446.9863,336.25,446.9863,348.25,458.9863,336.25,470.9863,242.25,470.9863,230.25,458.9863,242.25,446.9863" style="stroke: #A80036; stroke-width: 1.5;"/><text fill="#000000" font-family="sans-serif" font-size="11" lengthAdjust="spacingAndGlyphs" textLength="18" x="293.25" y="481.6211">yes</text><text fill="#000000" font-family="sans-serif" font-size="11" lengthAdjust="spacingAndGlyphs" textLength="94" x="242.25" y="463.1436">assigned address</text><text fill="#000000" font-family="sans-serif" font-size="11" lengthAdjust="spacingAndGlyphs" textLength="14" x="348.25" y="456.666">no</text><polygon fill="#FEFECE" filter="url(#f16sajmdzcjahq)" points="289.25,696.207,301.25,708.207,289.25,720.207,277.25,708.207,289.25,696.207" style="stroke: #A80036; stroke-width: 1.5;"/><rect fill="#FEFECE" filter="url(#f16sajmdzcjahq)" height="34.1328" rx="12.5" ry="12.5" style="stroke: #A80036; stroke-width: 1.5;" width="234" x="172.25" y="740.207"/><text fill="#000000" font-family="sans-serif" font-size="12" lengthAdjust="spacingAndGlyphs" textLength="214" x="182.25" y="761.8086">push back subnet configured options</text><rect fill="#FEFECE" filter="url(#f16sajmdzcjahq)" height="34.1328" rx="12.5" ry="12.5" style="stroke: #A80036; stroke-width: 1.5;" width="206" x="186.25" y="794.3398"/><text fill="#000000" font-family="sans-serif" font-size="12" lengthAdjust="spacingAndGlyphs" textLength="186" x="196.25" y="815.9414">get shared network from subnet</text><rect fill="#FEFECE" filter="url(#f16sajmdzcjahq)" height="34.1328" rx="12.5" ry="12.5" style="stroke: #A80036; stroke-width: 1.5;" width="285" x="146.75" y="896.9502"/><text fill="#000000" font-family="sans-serif" font-size="12" lengthAdjust="spacingAndGlyphs" textLength="265" x="156.75" y="918.5518">push back shared network configured options</text><polygon fill="#FEFECE" filter="url(#f16sajmdzcjahq)" points="247.75,848.4727,330.75,848.4727,342.75,860.4727,330.75,872.4727,247.75,872.4727,235.75,860.4727,247.75,848.4727" style="stroke: #A80036; stroke-width: 1.5;"/><text fill="#000000" font-family="sans-serif" font-size="11" lengthAdjust="spacingAndGlyphs" textLength="18" x="293.25" y="883.1074">yes</text><text fill="#000000" font-family="sans-serif" font-size="11" lengthAdjust="spacingAndGlyphs" textLength="83" x="247.75" y="864.6299">shared network</text><text fill="#000000" font-family="sans-serif" font-size="11" lengthAdjust="spacingAndGlyphs" textLength="14" x="342.75" y="858.1523">no</text><polygon fill="#FEFECE" filter="url(#f16sajmdzcjahq)" points="289.25,951.083,301.25,963.083,289.25,975.083,277.25,963.083,289.25,951.083" style="stroke: #A80036; stroke-width: 1.5;"/><rect fill="#FEFECE" filter="url(#f16sajmdzcjahq)" height="34.1328" rx="12.5" ry="12.5" style="stroke: #A80036; stroke-width: 1.5;" width="315" x="131.75" y="1039.083"/><text fill="#000000" font-family="sans-serif" font-size="12" lengthAdjust="spacingAndGlyphs" textLength="295" x="141.75" y="1060.6846">get client class definition from current configuration</text><polygon fill="#FEFECE" filter="url(#f16sajmdzcjahq)" points="273.25,1093.2158,305.25,1093.2158,317.25,1105.2158,305.25,1117.2158,273.25,1117.2158,261.25,1105.2158,273.25,1093.2158" style="stroke: #A80036; stroke-width: 1.5;"/><text fill="#000000" font-family="sans-serif" font-size="11" lengthAdjust="spacingAndGlyphs" textLength="32" x="273.25" y="1109.373">found</text><text fill="#000000" font-family="sans-serif" font-size="11" lengthAdjust="spacingAndGlyphs" textLength="14" x="247.25" y="1102.8955">no</text><text fill="#000000" font-family="sans-serif" font-size="11" lengthAdjust="spacingAndGlyphs" textLength="18" x="317.25" y="1102.8955">yes</text><rect fill="#FEFECE" filter="url(#f16sajmdzcjahq)" height="34.1328" rx="12.5" ry="12.5" style="stroke: #A80036; stroke-width: 1.5;" width="197" x="42" y="1175.6934"/><text fill="#000000" font-family="sans-serif" font-size="12" lengthAdjust="spacingAndGlyphs" textLength="177" x="52" y="1197.2949">log debug "class unconfigured"</text><polygon fill="#FEFECE" filter="url(#f16sajmdzcjahq)" points="89.5,1127.2158,191.5,1127.2158,203.5,1139.2158,191.5,1151.2158,89.5,1151.2158,77.5,1139.2158,89.5,1127.2158" style="stroke: #A80036; stroke-width: 1.5;"/><text fill="#000000" font-family="sans-serif" font-size="11" lengthAdjust="spacingAndGlyphs" textLength="14" x="144.5" y="1161.8506">no</text><text fill="#000000" font-family="sans-serif" font-size="11" lengthAdjust="spacingAndGlyphs" textLength="102" x="89.5" y="1143.373">built-in client class</text><text fill="#000000" font-family="sans-serif" font-size="11" lengthAdjust="spacingAndGlyphs" textLength="18" x="203.5" y="1136.8955">yes</text><polygon fill="#FEFECE" filter="url(#f16sajmdzcjahq)" points="140.5,1229.8262,152.5,1241.8262,140.5,1253.8262,128.5,1241.8262,140.5,1229.8262" style="stroke: #A80036; stroke-width: 1.5;"/><rect fill="#FEFECE" filter="url(#f16sajmdzcjahq)" height="34.1328" rx="12.5" ry="12.5" style="stroke: #A80036; stroke-width: 1.5;" width="314" x="281" y="1127.2158"/><text fill="#000000" font-family="sans-serif" font-size="12" lengthAdjust="spacingAndGlyphs" textLength="294" x="291" y="1148.8174">push back client class definition configured options</text><polygon fill="#FEFECE" filter="url(#f16sajmdzcjahq)" points="289.25,1259.8262,301.25,1271.8262,289.25,1283.8262,277.25,1271.8262,289.25,1259.8262" style="stroke: #A80036; stroke-width: 1.5;"/><polygon fill="#FEFECE" filter="url(#f16sajmdzcjahq)" points="219.25,995.083,359.25,995.083,371.25,1007.083,359.25,1019.083,219.25,1019.083,207.25,1007.083,219.25,995.083" style="stroke: #A80036; stroke-width: 1.5;"/><text fill="#000000" font-family="sans-serif" font-size="11" lengthAdjust="spacingAndGlyphs" textLength="140" x="219.25" y="1011.2402">for each query client class</text><rect fill="#FEFECE" filter="url(#f16sajmdzcjahq)" height="34.1328" rx="12.5" ry="12.5" style="stroke: #A80036; stroke-width: 1.5;" width="230" x="174.25" y="1325.8262"/><text fill="#000000" font-family="sans-serif" font-size="12" lengthAdjust="spacingAndGlyphs" textLength="210" x="184.25" y="1347.4277">push back global configured options</text><rect fill="#FEFECE" filter="url(#f16sajmdzcjahq)" height="34.1328" rx="12.5" ry="12.5" style="stroke: #A80036; stroke-width: 1.5;" width="55" x="261.75" y="1379.959"/><text fill="#000000" font-family="sans-serif" font-size="12" lengthAdjust="spacingAndGlyphs" textLength="35" x="271.75" y="1401.5605">return</text><ellipse cx="289.25" cy="1445.0918" fill="#FFFFFF" filter="url(#f16sajmdzcjahq)" rx="11" ry="11" style="stroke: #000000; stroke-width: 1.0;"/><ellipse cx="289.25" cy="1445.0918" fill="#000000" rx="6" ry="6" style="stroke: #7F7F7F; stroke-width: 1.0;"/><line style="stroke: #A80036; stroke-width: 1.5;" x1="289.25" x2="289.25" y1="51.1992" y2="71.1992"/><polygon fill="#A80036" points="285.25,61.1992,289.25,71.1992,293.25,61.1992,289.25,65.1992" style="stroke: #A80036; stroke-width: 1.0;"/><line style="stroke: #A80036; stroke-width: 1.5;" x1="289.25" x2="289.25" y1="207.9424" y2="236.376"/><polygon fill="#A80036" points="285.25,226.376,289.25,236.376,293.25,226.376,289.25,230.376" style="stroke: #A80036; stroke-width: 1.0;"/><line style="stroke: #A80036; stroke-width: 1.5;" x1="289.25" x2="289.25" y1="149.332" y2="173.8096"/><polygon fill="#A80036" points="285.25,163.8096,289.25,173.8096,293.25,163.8096,289.25,167.8096" style="stroke: #A80036; stroke-width: 1.0;"/><line style="stroke: #A80036; stroke-width: 1.5;" x1="328.25" x2="340.25" y1="137.332" y2="137.332"/><polygon fill="#A80036" points="336.25,206.376,340.25,216.376,344.25,206.376,340.25,210.376" style="stroke: #A80036; stroke-width: 1.5;"/><line style="stroke: #A80036; stroke-width: 1.5;" x1="340.25" x2="340.25" y1="137.332" y2="280.376"/><line style="stroke: #A80036; stroke-width: 1.5;" x1="340.25" x2="289.25" y1="280.376" y2="280.376"/><line style="stroke: #A80036; stroke-width: 1.5;" x1="289.25" x2="289.25" y1="280.376" y2="300.376"/><polygon fill="#A80036" points="285.25,290.376,289.25,300.376,293.25,290.376,289.25,294.376" style="stroke: #A80036; stroke-width: 1.0;"/><line style="stroke: #A80036; stroke-width: 1.5;" x1="289.25" x2="289.25" y1="105.332" y2="125.332"/><polygon fill="#A80036" points="285.25,115.332,289.25,125.332,293.25,115.332,289.25,119.332" style="stroke: #A80036; stroke-width: 1.0;"/><line style="stroke: #A80036; stroke-width: 1.5;" x1="289.25" x2="289.25" y1="324.376" y2="348.8535"/><polygon fill="#A80036" points="285.25,338.8535,289.25,348.8535,293.25,338.8535,289.25,342.8535" style="stroke: #A80036; stroke-width: 1.0;"/><line style="stroke: #A80036; stroke-width: 1.5;" x1="366.75" x2="408.75" y1="312.376" y2="312.376"/><polygon fill="#A80036" points="404.75,355.9199,408.75,365.9199,412.75,355.9199,408.75,359.9199" style="stroke: #A80036; stroke-width: 1.5;"/><line style="stroke: #A80036; stroke-width: 1.5;" x1="408.75" x2="408.75" y1="312.376" y2="414.9863"/><line style="stroke: #A80036; stroke-width: 1.5;" x1="408.75" x2="301.25" y1="414.9863" y2="414.9863"/><polygon fill="#A80036" points="311.25,410.9863,301.25,414.9863,311.25,418.9863,307.25,414.9863" style="stroke: #A80036; stroke-width: 1.0;"/><line style="stroke: #A80036; stroke-width: 1.5;" x1="289.25" x2="289.25" y1="382.9863" y2="402.9863"/><polygon fill="#A80036" points="285.25,392.9863,289.25,402.9863,293.25,392.9863,289.25,396.9863" style="stroke: #A80036; stroke-width: 1.0;"/><line style="stroke: #A80036; stroke-width: 1.5;" x1="289.25" x2="289.25" y1="573.5967" y2="598.0742"/><polygon fill="#A80036" points="285.25,588.0742,289.25,598.0742,293.25,588.0742,289.25,592.0742" style="stroke: #A80036; stroke-width: 1.0;"/><line style="stroke: #A80036; stroke-width: 1.5;" x1="313.25" x2="409.25" y1="561.5967" y2="561.5967"/><polygon fill="#A80036" points="405.25,605.1406,409.25,615.1406,413.25,605.1406,409.25,609.1406" style="stroke: #A80036; stroke-width: 1.5;"/><line style="stroke: #A80036; stroke-width: 1.5;" x1="409.25" x2="409.25" y1="561.5967" y2="664.207"/><line style="stroke: #A80036; stroke-width: 1.5;" x1="409.25" x2="301.25" y1="664.207" y2="664.207"/><polygon fill="#A80036" points="311.25,660.207,301.25,664.207,311.25,668.207,307.25,664.207" style="stroke: #A80036; stroke-width: 1.0;"/><line style="stroke: #A80036; stroke-width: 1.5;" x1="289.25" x2="289.25" y1="632.207" y2="652.207"/><polygon fill="#A80036" points="285.25,642.207,289.25,652.207,293.25,642.207,289.25,646.207" style="stroke: #A80036; stroke-width: 1.0;"/><line style="stroke: #A80036; stroke-width: 1.5;" x1="289.25" x2="289.25" y1="529.5967" y2="549.5967"/><polygon fill="#A80036" points="285.25,539.5967,289.25,549.5967,293.25,539.5967,289.25,543.5967" style="stroke: #A80036; stroke-width: 1.0;"/><line style="stroke: #A80036; stroke-width: 1.5;" x1="289.25" x2="289.25" y1="470.9863" y2="495.4639"/><polygon fill="#A80036" points="285.25,485.4639,289.25,495.4639,293.25,485.4639,289.25,489.4639" style="stroke: #A80036; stroke-width: 1.0;"/><line style="stroke: #A80036; stroke-width: 1.5;" x1="348.25" x2="431.25" y1="458.9863" y2="458.9863"/><polygon fill="#A80036" points="427.25,570.5742,431.25,580.5742,435.25,570.5742,431.25,574.5742" style="stroke: #A80036; stroke-width: 1.5;"/><line style="stroke: #A80036; stroke-width: 1.5;" x1="431.25" x2="431.25" y1="458.9863" y2="708.207"/><line style="stroke: #A80036; stroke-width: 1.5;" x1="431.25" x2="301.25" y1="708.207" y2="708.207"/><polygon fill="#A80036" points="311.25,704.207,301.25,708.207,311.25,712.207,307.25,708.207" style="stroke: #A80036; stroke-width: 1.0;"/><line style="stroke: #A80036; stroke-width: 1.5;" x1="289.25" x2="289.25" y1="676.207" y2="696.207"/><polygon fill="#A80036" points="285.25,686.207,289.25,696.207,293.25,686.207,289.25,690.207" style="stroke: #A80036; stroke-width: 1.0;"/><line style="stroke: #A80036; stroke-width: 1.5;" x1="289.25" x2="289.25" y1="426.9863" y2="446.9863"/><polygon fill="#A80036" points="285.25,436.9863,289.25,446.9863,293.25,436.9863,289.25,440.9863" style="stroke: #A80036; stroke-width: 1.0;"/><line style="stroke: #A80036; stroke-width: 1.5;" x1="289.25" x2="289.25" y1="720.207" y2="740.207"/><polygon fill="#A80036" points="285.25,730.207,289.25,740.207,293.25,730.207,289.25,734.207" style="stroke: #A80036; stroke-width: 1.0;"/><line style="stroke: #A80036; stroke-width: 1.5;" x1="289.25" x2="289.25" y1="774.3398" y2="794.3398"/><polygon fill="#A80036" points="285.25,784.3398,289.25,794.3398,293.25,784.3398,289.25,788.3398" style="stroke: #A80036; stroke-width: 1.0;"/><line style="stroke: #A80036; stroke-width: 1.5;" x1="289.25" x2="289.25" y1="872.4727" y2="896.9502"/><polygon fill="#A80036" points="285.25,886.9502,289.25,896.9502,293.25,886.9502,289.25,890.9502" style="stroke: #A80036; stroke-width: 1.0;"/><line style="stroke: #A80036; stroke-width: 1.5;" x1="342.75" x2="441.75" y1="860.4727" y2="860.4727"/><polygon fill="#A80036" points="437.75,904.0166,441.75,914.0166,445.75,904.0166,441.75,908.0166" style="stroke: #A80036; stroke-width: 1.5;"/><line style="stroke: #A80036; stroke-width: 1.5;" x1="441.75" x2="441.75" y1="860.4727" y2="963.083"/><line style="stroke: #A80036; stroke-width: 1.5;" x1="441.75" x2="301.25" y1="963.083" y2="963.083"/><polygon fill="#A80036" points="311.25,959.083,301.25,963.083,311.25,967.083,307.25,963.083" style="stroke: #A80036; stroke-width: 1.0;"/><line style="stroke: #A80036; stroke-width: 1.5;" x1="289.25" x2="289.25" y1="931.083" y2="951.083"/><polygon fill="#A80036" points="285.25,941.083,289.25,951.083,293.25,941.083,289.25,945.083" style="stroke: #A80036; stroke-width: 1.0;"/><line style="stroke: #A80036; stroke-width: 1.5;" x1="289.25" x2="289.25" y1="828.4727" y2="848.4727"/><polygon fill="#A80036" points="285.25,838.4727,289.25,848.4727,293.25,838.4727,289.25,842.4727" style="stroke: #A80036; stroke-width: 1.0;"/><line style="stroke: #A80036; stroke-width: 1.5;" x1="140.5" x2="140.5" y1="1151.2158" y2="1175.6934"/><polygon fill="#A80036" points="136.5,1165.6934,140.5,1175.6934,144.5,1165.6934,140.5,1169.6934" style="stroke: #A80036; stroke-width: 1.0;"/><line style="stroke: #A80036; stroke-width: 1.5;" x1="203.5" x2="249" y1="1139.2158" y2="1139.2158"/><polygon fill="#A80036" points="245,1182.7598,249,1192.7598,253,1182.7598,249,1186.7598" style="stroke: #A80036; stroke-width: 1.5;"/><line style="stroke: #A80036; stroke-width: 1.5;" x1="249" x2="249" y1="1139.2158" y2="1241.8262"/><line style="stroke: #A80036; stroke-width: 1.5;" x1="249" x2="152.5" y1="1241.8262" y2="1241.8262"/><polygon fill="#A80036" points="162.5,1237.8262,152.5,1241.8262,162.5,1245.8262,158.5,1241.8262" style="stroke: #A80036; stroke-width: 1.0;"/><line style="stroke: #A80036; stroke-width: 1.5;" x1="140.5" x2="140.5" y1="1209.8262" y2="1229.8262"/><polygon fill="#A80036" points="136.5,1219.8262,140.5,1229.8262,144.5,1219.8262,140.5,1223.8262" style="stroke: #A80036; stroke-width: 1.0;"/><line style="stroke: #A80036; stroke-width: 1.5;" x1="261.25" x2="140.5" y1="1105.2158" y2="1105.2158"/><line style="stroke: #A80036; stroke-width: 1.5;" x1="140.5" x2="140.5" y1="1105.2158" y2="1127.2158"/><polygon fill="#A80036" points="136.5,1117.2158,140.5,1127.2158,144.5,1117.2158,140.5,1121.2158" style="stroke: #A80036; stroke-width: 1.0;"/><line style="stroke: #A80036; stroke-width: 1.5;" x1="317.25" x2="438" y1="1105.2158" y2="1105.2158"/><line style="stroke: #A80036; stroke-width: 1.5;" x1="438" x2="438" y1="1105.2158" y2="1127.2158"/><polygon fill="#A80036" points="434,1117.2158,438,1127.2158,442,1117.2158,438,1121.2158" style="stroke: #A80036; stroke-width: 1.0;"/><line style="stroke: #A80036; stroke-width: 1.5;" x1="140.5" x2="140.5" y1="1253.8262" y2="1271.8262"/><line style="stroke: #A80036; stroke-width: 1.5;" x1="140.5" x2="277.25" y1="1271.8262" y2="1271.8262"/><polygon fill="#A80036" points="267.25,1267.8262,277.25,1271.8262,267.25,1275.8262,271.25,1271.8262" style="stroke: #A80036; stroke-width: 1.0;"/><line style="stroke: #A80036; stroke-width: 1.5;" x1="438" x2="438" y1="1161.3486" y2="1271.8262"/><line style="stroke: #A80036; stroke-width: 1.5;" x1="438" x2="301.25" y1="1271.8262" y2="1271.8262"/><polygon fill="#A80036" points="311.25,1267.8262,301.25,1271.8262,311.25,1275.8262,307.25,1271.8262" style="stroke: #A80036; stroke-width: 1.0;"/><line style="stroke: #A80036; stroke-width: 1.5;" x1="289.25" x2="289.25" y1="1073.2158" y2="1093.2158"/><polygon fill="#A80036" points="285.25,1083.2158,289.25,1093.2158,293.25,1083.2158,289.25,1087.2158" style="stroke: #A80036; stroke-width: 1.0;"/><line style="stroke: #A80036; stroke-width: 1.5;" x1="289.25" x2="289.25" y1="1019.083" y2="1039.083"/><polygon fill="#A80036" points="285.25,1029.083,289.25,1039.083,293.25,1029.083,289.25,1033.083" style="stroke: #A80036; stroke-width: 1.0;"/><line style="stroke: #A80036; stroke-width: 1.5;" x1="289.25" x2="289.25" y1="1283.8262" y2="1293.8262"/><line style="stroke: #A80036; stroke-width: 1.5;" x1="289.25" x2="609" y1="1293.8262" y2="1293.8262"/><polygon fill="#A80036" points="605,1154.1934,609,1144.1934,613,1154.1934,609,1150.1934" style="stroke: #A80036; stroke-width: 1.5;"/><line style="stroke: #A80036; stroke-width: 1.5;" x1="609" x2="609" y1="1007.083" y2="1293.8262"/><line style="stroke: #A80036; stroke-width: 1.5;" x1="609" x2="371.25" y1="1007.083" y2="1007.083"/><polygon fill="#A80036" points="381.25,1003.083,371.25,1007.083,381.25,1011.083,377.25,1007.083" style="stroke: #A80036; stroke-width: 1.0;"/><line style="stroke: #A80036; stroke-width: 1.5;" x1="207.25" x2="28" y1="1007.083" y2="1007.083"/><polygon fill="#A80036" points="24,1140.1934,28,1150.1934,32,1140.1934,28,1144.1934" style="stroke: #A80036; stroke-width: 1.5;"/><line style="stroke: #A80036; stroke-width: 1.5;" x1="28" x2="28" y1="1007.083" y2="1305.8262"/><line style="stroke: #A80036; stroke-width: 1.5;" x1="28" x2="289.25" y1="1305.8262" y2="1305.8262"/><line style="stroke: #A80036; stroke-width: 1.5;" x1="289.25" x2="289.25" y1="1305.8262" y2="1325.8262"/><polygon fill="#A80036" points="285.25,1315.8262,289.25,1325.8262,293.25,1315.8262,289.25,1319.8262" style="stroke: #A80036; stroke-width: 1.0;"/><line style="stroke: #A80036; stroke-width: 1.5;" x1="289.25" x2="289.25" y1="975.083" y2="995.083"/><polygon fill="#A80036" points="285.25,985.083,289.25,995.083,293.25,985.083,289.25,989.083" style="stroke: #A80036; stroke-width: 1.0;"/><line style="stroke: #A80036; stroke-width: 1.5;" x1="289.25" x2="289.25" y1="1359.959" y2="1379.959"/><polygon fill="#A80036" points="285.25,1369.959,289.25,1379.959,293.25,1369.959,289.25,1373.959" style="stroke: #A80036; stroke-width: 1.0;"/><line style="stroke: #A80036; stroke-width: 1.5;" x1="289.25" x2="289.25" y1="1414.0918" y2="1434.0918"/><polygon fill="#A80036" points="285.25,1424.0918,289.25,1434.0918,293.25,1424.0918,289.25,1428.0918" style="stroke: #A80036; stroke-width: 1.0;"/><!--MD5=[2c0735bd80b11bbbb6a11e4cabbe7b62]
@startuml

title buildCfgOptionList: build configured option list algorithm (Kea 1.7.11)

start
:Get (empty) configured option list;

if (no subnet) then (yes)
  :return;
  stop
else (no)
endif

if (current host reservation) then (yes)
  :push back host configured options;
else (no)
endif

if (assigned address) then (yes)
  :get pool of assigned address;
  if (pool) then (yes)
    :push back pool configured options;
  else (no)
  endif
else (no)
endif

:push back subnet configured options;

:get shared network from subnet;
if (shared network) then (yes)
  :push back shared network configured options;
else (no)
endif

while (for each query client class)
 :get client class definition from current configuration;
 if (found) then (no)
    if (built-in client class) then (yes)
    else (no)
      :log debug "class unconfigured";
    endif
  else (yes)
    :push back client class definition configured options;
  endif
endwhile

:push back global configured options;
:return;
stop

@enduml

PlantUML version 1.2020.15(Sun Jun 28 13:39:45 CEST 2020)
(GPL source distribution)
Java Runtime: OpenJDK Runtime Environment
JVM: OpenJDK 64-Bit Server VM
Default Encoding: UTF-8
Language: en
Country: US
--></g></svg>