<?xml version="1.0" encoding="UTF-8" standalone="no"?>
<!-- Created with Bouml (http://bouml.free.fr/) -->
<!DOCTYPE svg PUBLIC "-//W3C//DTD SVG 1.1//EN" "http://www.w3.org/Graphics/SVG/1.1/DTD/svg11.dtd">
<svg width="1126" height="713" version="1.1" xmlns="http://www.w3.org/2000/svg">
<g>
	<rect fill="#cbcbcb" stroke="none" stroke-opacity="1" x="146" y="343" width="3" height="147" />
	<rect fill="#cbcbcb" stroke="none" stroke-opacity="1" x="20" y="487" width="129" height="3" />
	<rect fill="#c0ffff" stroke="black" stroke-width="1" stroke-opacity="1" x="16" y="339" width="130" height="148" />
	<text font-family="Helvetica" font-size="11" fill="#000000" xml:space="preserve" font-weight="bold" text-anchor="middle" x="81" y="352">DdnsDomainListMgr</text>
	<line stroke="black" stroke-opacity="1" x1="16" y1="354" x2="146" y2="354" />
	<text font-family="Helvetica" font-size="11" fill="#000000" xml:space="preserve" text-decoration="underline" x="20" y="367">wildcard_domain_name_</text>
	<text font-family="Helvetica" font-size="11" fill="#000000" xml:space="preserve" x="20" y="380">name_</text>
	<line stroke="black" stroke-opacity="1" x1="16" y1="382" x2="146" y2="382" />
	<text font-family="Helvetica" font-size="11" fill="#000000" xml:space="preserve" x="20" y="395">DdnsDomainListMgr()</text>
	<text font-family="Helvetica" font-size="11" fill="#000000" xml:space="preserve" x="20" y="408">~DdnsDomainListMgr()</text>
	<text font-family="Helvetica" font-size="11" fill="#000000" xml:space="preserve" x="20" y="421">matchDomain()</text>
	<text font-family="Helvetica" font-size="11" fill="#000000" xml:space="preserve" x="20" y="434">getName()</text>
	<text font-family="Helvetica" font-size="11" fill="#000000" xml:space="preserve" x="20" y="447">size()</text>
	<text font-family="Helvetica" font-size="11" fill="#000000" xml:space="preserve" x="20" y="460">getWildcardDomain()</text>
	<text font-family="Helvetica" font-size="11" fill="#000000" xml:space="preserve" x="20" y="473">getDomains()</text>
	<text font-family="Helvetica" font-size="11" fill="#000000" xml:space="preserve" x="20" y="486">setDomains()</text>
</g>
<g>
	<rect fill="#cbcbcb" stroke="none" stroke-opacity="1" x="750" y="474" width="3" height="213" />
	<rect fill="#cbcbcb" stroke="none" stroke-opacity="1" x="622" y="684" width="131" height="3" />
	<rect fill="#c0ffff" stroke="black" stroke-width="1" stroke-opacity="1" x="618" y="470" width="132" height="214" />
	<text font-family="Helvetica" font-size="11" fill="#000000" xml:space="preserve" font-weight="bold" text-anchor="middle" x="684" y="483">DnsServerInfo</text>
	<line stroke="black" stroke-opacity="1" x1="618" y1="485" x2="750" y2="485" />
	<text font-family="Helvetica" font-size="11" fill="#000000" xml:space="preserve" text-decoration="underline" x="622" y="498">STANDARD_DNS_PORT</text>
	<text font-family="Helvetica" font-size="11" fill="#000000" xml:space="preserve" text-decoration="underline" x="622" y="511">EMPTY_IP_STR</text>
	<text font-family="Helvetica" font-size="11" fill="#000000" xml:space="preserve" x="622" y="524">hostname_</text>
	<text font-family="Helvetica" font-size="11" fill="#000000" xml:space="preserve" x="622" y="537">ip_address_</text>
	<text font-family="Helvetica" font-size="11" fill="#000000" xml:space="preserve" x="622" y="550">port_</text>
	<text font-family="Helvetica" font-size="11" fill="#000000" xml:space="preserve" x="622" y="563">enabled_</text>
	<line stroke="black" stroke-opacity="1" x1="618" y1="565" x2="750" y2="565" />
	<text font-family="Helvetica" font-size="11" fill="#000000" xml:space="preserve" x="622" y="578">DnsServerInfo()</text>
	<text font-family="Helvetica" font-size="11" fill="#000000" xml:space="preserve" x="622" y="591">~DnsServerInfo()</text>
	<text font-family="Helvetica" font-size="11" fill="#000000" xml:space="preserve" x="622" y="604">getHostname()</text>
	<text font-family="Helvetica" font-size="11" fill="#000000" xml:space="preserve" x="622" y="617">getPort()</text>
	<text font-family="Helvetica" font-size="11" fill="#000000" xml:space="preserve" x="622" y="630">getIpAddress()</text>
	<text font-family="Helvetica" font-size="11" fill="#000000" xml:space="preserve" x="622" y="643">isEnabled()</text>
	<text font-family="Helvetica" font-size="11" fill="#000000" xml:space="preserve" x="622" y="656">enable()</text>
	<text font-family="Helvetica" font-size="11" fill="#000000" xml:space="preserve" x="622" y="669">disable()</text>
	<text font-family="Helvetica" font-size="11" fill="#000000" xml:space="preserve" x="622" y="682">toText()</text>
</g>
<g>
	<rect fill="#cbcbcb" stroke="none" stroke-opacity="1" x="422" y="422" width="3" height="109" />
	<rect fill="#cbcbcb" stroke="none" stroke-opacity="1" x="342" y="528" width="83" height="3" />
	<rect fill="#c0ffff" stroke="black" stroke-width="1" stroke-opacity="1" x="338" y="418" width="84" height="110" />
	<text font-family="Helvetica" font-size="11" fill="#000000" xml:space="preserve" font-weight="bold" text-anchor="middle" x="380" y="431">DdnsDomain</text>
	<line stroke="black" stroke-opacity="1" x1="338" y1="433" x2="422" y2="433" />
	<text font-family="Helvetica" font-size="11" fill="#000000" xml:space="preserve" x="342" y="446">name_</text>
	<text font-family="Helvetica" font-size="11" fill="#000000" xml:space="preserve" x="342" y="459">key_name_</text>
	<line stroke="black" stroke-opacity="1" x1="338" y1="461" x2="422" y2="461" />
	<text font-family="Helvetica" font-size="11" fill="#000000" xml:space="preserve" x="342" y="474">DdnsDomain()</text>
	<text font-family="Helvetica" font-size="11" fill="#000000" xml:space="preserve" x="342" y="487">~DdnsDomain()</text>
	<text font-family="Helvetica" font-size="11" fill="#000000" xml:space="preserve" x="342" y="500">getName()</text>
	<text font-family="Helvetica" font-size="11" fill="#000000" xml:space="preserve" x="342" y="513">getKeyName()</text>
	<text font-family="Helvetica" font-size="11" fill="#000000" xml:space="preserve" x="342" y="526">getServers()</text>
</g>
<g>
	<rect fill="#cbcbcb" stroke="none" stroke-opacity="1" x="598" y="316" width="3" height="95" />
	<rect fill="#cbcbcb" stroke="none" stroke-opacity="1" x="462" y="408" width="139" height="3" />
	<rect fill="#ffffc0" stroke="black" stroke-width="1" stroke-opacity="1" x="458" y="312" width="140" height="96" />
	<text font-family="Helvetica" font-size="11" fill="#000000" xml:space="preserve" font-weight="bold" text-anchor="middle" x="528" y="325">DnsServerInfoListParser</text>
	<line stroke="black" stroke-opacity="1" x1="458" y1="327" x2="598" y2="327" />
	<text font-family="Helvetica" font-size="11" fill="#000000" xml:space="preserve" x="462" y="340">list_name_</text>
	<text font-family="Helvetica" font-size="11" fill="#000000" xml:space="preserve" x="462" y="353">parsers_</text>
	<line stroke="black" stroke-opacity="1" x1="458" y1="355" x2="598" y2="355" />
	<text font-family="Helvetica" font-size="11" fill="#000000" xml:space="preserve" x="462" y="368">DnsServerInfoListParser()</text>
	<text font-family="Helvetica" font-size="11" fill="#000000" xml:space="preserve" x="462" y="381">~DnsServerInfoListParser()</text>
	<text font-family="Helvetica" font-size="11" fill="#000000" xml:space="preserve" x="462" y="394">build()</text>
	<text font-family="Helvetica" font-size="11" fill="#000000" xml:space="preserve" x="462" y="407">commit()</text>
</g>
<g>
	<rect fill="#cbcbcb" stroke="none" stroke-opacity="1" x="738" y="348" width="3" height="95" />
	<rect fill="#cbcbcb" stroke="none" stroke-opacity="1" x="618" y="440" width="123" height="3" />
	<rect fill="#ffffc0" stroke="black" stroke-width="1" stroke-opacity="1" x="614" y="344" width="124" height="96" />
	<text font-family="Helvetica" font-size="11" fill="#000000" xml:space="preserve" font-weight="bold" text-anchor="middle" x="676" y="357">DnsServerInfoParser</text>
	<line stroke="black" stroke-opacity="1" x1="614" y1="359" x2="738" y2="359" />
	<text font-family="Helvetica" font-size="11" fill="#000000" xml:space="preserve" x="618" y="372">entry_name_</text>
	<line stroke="black" stroke-opacity="1" x1="614" y1="374" x2="738" y2="374" />
	<text font-family="Helvetica" font-size="11" fill="#000000" xml:space="preserve" x="618" y="387">DnsServerInfoParser()</text>
	<text font-family="Helvetica" font-size="11" fill="#000000" xml:space="preserve" x="618" y="400">~DnsServerInfoParser()</text>
	<text font-family="Helvetica" font-size="11" fill="#000000" xml:space="preserve" x="618" y="413">build()</text>
	<text font-family="Helvetica" font-size="11" fill="#000000" xml:space="preserve" x="618" y="426">createConfigParser()</text>
	<text font-family="Helvetica" font-size="11" fill="#000000" xml:space="preserve" x="618" y="439">commit()</text>
</g>
<g>
	<rect fill="#cbcbcb" stroke="none" stroke-opacity="1" x="160" y="205" width="3" height="95" />
	<rect fill="#cbcbcb" stroke="none" stroke-opacity="1" x="10" y="297" width="153" height="3" />
	<rect fill="#ffffc0" stroke="black" stroke-width="1" stroke-opacity="1" x="6" y="201" width="154" height="96" />
	<text font-family="Helvetica" font-size="11" fill="#000000" xml:space="preserve" font-weight="bold" text-anchor="middle" x="83" y="214">DdnsDomainListMgrParser</text>
	<line stroke="black" stroke-opacity="1" x1="6" y1="216" x2="160" y2="216" />
	<text font-family="Helvetica" font-size="11" fill="#000000" xml:space="preserve" x="10" y="229">entry_name_</text>
	<line stroke="black" stroke-opacity="1" x1="6" y1="231" x2="160" y2="231" />
	<text font-family="Helvetica" font-size="11" fill="#000000" xml:space="preserve" x="10" y="244">DdnsDomainListMgrParser()</text>
	<text font-family="Helvetica" font-size="11" fill="#000000" xml:space="preserve" x="10" y="257">~DdnsDomainListMgrParser()</text>
	<text font-family="Helvetica" font-size="11" fill="#000000" xml:space="preserve" x="10" y="270">build()</text>
	<text font-family="Helvetica" font-size="11" fill="#000000" xml:space="preserve" x="10" y="283">createConfigParser()</text>
	<text font-family="Helvetica" font-size="11" fill="#000000" xml:space="preserve" x="10" y="296">commit()</text>
</g>
<g>
	<rect fill="#cbcbcb" stroke="none" stroke-opacity="1" x="585" y="65" width="3" height="95" />
	<rect fill="#cbcbcb" stroke="none" stroke-opacity="1" x="473" y="157" width="115" height="3" />
	<rect fill="#ffffc0" stroke="black" stroke-width="1" stroke-opacity="1" x="469" y="61" width="116" height="96" />
	<text font-family="Helvetica" font-size="11" fill="#000000" xml:space="preserve" font-weight="bold" text-anchor="middle" x="527" y="74">TSIGKeyInfoParser</text>
	<line stroke="black" stroke-opacity="1" x1="469" y1="76" x2="585" y2="76" />
	<text font-family="Helvetica" font-size="11" fill="#000000" xml:space="preserve" x="473" y="89">entry_name_</text>
	<line stroke="black" stroke-opacity="1" x1="469" y1="91" x2="585" y2="91" />
	<text font-family="Helvetica" font-size="11" fill="#000000" xml:space="preserve" x="473" y="104">TSIGKeyInfoParser()</text>
	<text font-family="Helvetica" font-size="11" fill="#000000" xml:space="preserve" x="473" y="117">~TSIGKeyInfoParser()</text>
	<text font-family="Helvetica" font-size="11" fill="#000000" xml:space="preserve" x="473" y="130">build()</text>
	<text font-family="Helvetica" font-size="11" fill="#000000" xml:space="preserve" x="473" y="143">createConfigParser()</text>
	<text font-family="Helvetica" font-size="11" fill="#000000" xml:space="preserve" x="473" y="156">commit()</text>
</g>
<g>
	<line stroke="black" stroke-opacity="1" x1="680" y1="469" x2="686" y2="463" />
	<line stroke="black" stroke-opacity="1" x1="680" y1="469" x2="674" y2="463" />
	<line stroke-dasharray="4,4" stroke="black" stroke-opacity="1" x1="680" y1="444" x2="680" y2="469" />
</g>
<g>
	<line stroke-dasharray="4,4" stroke="black" stroke-opacity="1" x1="602" y1="324" x2="675" y2="324" />
</g>
<g>
	<line stroke="black" stroke-opacity="1" x1="83" y1="338" x2="89" y2="332" />
	<line stroke="black" stroke-opacity="1" x1="83" y1="338" x2="77" y2="331" />
	<line stroke-dasharray="4,4" stroke="black" stroke-opacity="1" x1="84" y1="301" x2="83" y2="338" />
</g>
<g>
	<line stroke="black" stroke-opacity="1" x1="675" y1="343" x2="681" y2="337" />
	<line stroke="black" stroke-opacity="1" x1="675" y1="343" x2="669" y2="337" />
	<line stroke-dasharray="4,4" stroke="black" stroke-opacity="1" x1="675" y1="324" x2="675" y2="343" />
</g>
<g>
	<rect fill="#cbcbcb" stroke="none" stroke-opacity="1" x="434" y="33" width="3" height="95" />
	<rect fill="#cbcbcb" stroke="none" stroke-opacity="1" x="304" y="125" width="133" height="3" />
	<rect fill="#ffffc0" stroke="black" stroke-width="1" stroke-opacity="1" x="300" y="29" width="134" height="96" />
	<text font-family="Helvetica" font-size="11" fill="#000000" xml:space="preserve" font-weight="bold" text-anchor="middle" x="367" y="42">TSIGKeyInfoListParser</text>
	<line stroke="black" stroke-opacity="1" x1="300" y1="44" x2="434" y2="44" />
	<text font-family="Helvetica" font-size="11" fill="#000000" xml:space="preserve" x="304" y="57">list_name_</text>
	<text font-family="Helvetica" font-size="11" fill="#000000" xml:space="preserve" x="304" y="70">parsers_</text>
	<line stroke="black" stroke-opacity="1" x1="300" y1="72" x2="434" y2="72" />
	<text font-family="Helvetica" font-size="11" fill="#000000" xml:space="preserve" x="304" y="85">TSIGKeyInfoListParser()</text>
	<text font-family="Helvetica" font-size="11" fill="#000000" xml:space="preserve" x="304" y="98">~TSIGKeyInfoListParser()</text>
	<text font-family="Helvetica" font-size="11" fill="#000000" xml:space="preserve" x="304" y="111">build()</text>
	<text font-family="Helvetica" font-size="11" fill="#000000" xml:space="preserve" x="304" y="124">commit()</text>
</g>
<g>
	<rect fill="#cbcbcb" stroke="none" stroke-opacity="1" x="443" y="276" width="3" height="95" />
	<rect fill="#cbcbcb" stroke="none" stroke-opacity="1" x="329" y="368" width="117" height="3" />
	<rect fill="#ffffc0" stroke="black" stroke-width="1" stroke-opacity="1" x="325" y="272" width="118" height="96" />
	<text font-family="Helvetica" font-size="11" fill="#000000" xml:space="preserve" font-weight="bold" text-anchor="middle" x="384" y="285">DdnsDomainParser</text>
	<line stroke="black" stroke-opacity="1" x1="325" y1="287" x2="443" y2="287" />
	<text font-family="Helvetica" font-size="11" fill="#000000" xml:space="preserve" x="329" y="300">entry_name_</text>
	<line stroke="black" stroke-opacity="1" x1="325" y1="302" x2="443" y2="302" />
	<text font-family="Helvetica" font-size="11" fill="#000000" xml:space="preserve" x="329" y="315">DdnsDomainParser()</text>
	<text font-family="Helvetica" font-size="11" fill="#000000" xml:space="preserve" x="329" y="328">~DdnsDomainParser()</text>
	<text font-family="Helvetica" font-size="11" fill="#000000" xml:space="preserve" x="329" y="341">build()</text>
	<text font-family="Helvetica" font-size="11" fill="#000000" xml:space="preserve" x="329" y="354">createConfigParser()</text>
	<text font-family="Helvetica" font-size="11" fill="#000000" xml:space="preserve" x="329" y="367">commit()</text>
</g>
<g>
	<rect fill="#cbcbcb" stroke="none" stroke-opacity="1" x="311" y="241" width="3" height="95" />
	<rect fill="#cbcbcb" stroke="none" stroke-opacity="1" x="181" y="333" width="133" height="3" />
	<rect fill="#ffffc0" stroke="black" stroke-width="1" stroke-opacity="1" x="177" y="237" width="134" height="96" />
	<text font-family="Helvetica" font-size="11" fill="#000000" xml:space="preserve" font-weight="bold" text-anchor="middle" x="244" y="250">DdnsDomainListParser</text>
	<line stroke="black" stroke-opacity="1" x1="177" y1="252" x2="311" y2="252" />
	<text font-family="Helvetica" font-size="11" fill="#000000" xml:space="preserve" x="181" y="265">list_name_</text>
	<text font-family="Helvetica" font-size="11" fill="#000000" xml:space="preserve" x="181" y="278">parsers_</text>
	<line stroke="black" stroke-opacity="1" x1="177" y1="280" x2="311" y2="280" />
	<text font-family="Helvetica" font-size="11" fill="#000000" xml:space="preserve" x="181" y="293">DdnsDomainListParser()</text>
	<text font-family="Helvetica" font-size="11" fill="#000000" xml:space="preserve" x="181" y="306">~DdnsDomainListParser()</text>
	<text font-family="Helvetica" font-size="11" fill="#000000" xml:space="preserve" x="181" y="319">build()</text>
	<text font-family="Helvetica" font-size="11" fill="#000000" xml:space="preserve" x="181" y="332">commit()</text>
</g>
<g>
	<line stroke-dasharray="4,4" stroke="black" stroke-opacity="1" x1="315" y1="253" x2="386" y2="253" />
</g>
<g>
	<line stroke-dasharray="4,4" stroke="black" stroke-opacity="1" x1="164" y1="220" x2="246" y2="220" />
</g>
<g>
	<line stroke="black" stroke-opacity="1" x1="383" y1="417" x2="389" y2="411" />
	<line stroke="black" stroke-opacity="1" x1="383" y1="417" x2="377" y2="410" />
	<line stroke-dasharray="4,4" stroke="black" stroke-opacity="1" x1="384" y1="372" x2="383" y2="417" />
</g>
<g>
	<line stroke-dasharray="4,4" stroke="black" stroke-opacity="1" x1="447" y1="287" x2="530" y2="287" />
</g>
<g>
	<line stroke-dasharray="4,4" stroke="black" stroke-opacity="1" x1="438" y1="41" x2="529" y2="41" />
</g>
<g>
	<line stroke="black" stroke-opacity="1" x1="529" y1="60" x2="535" y2="54" />
	<line stroke="black" stroke-opacity="1" x1="529" y1="60" x2="523" y2="54" />
	<line stroke-dasharray="4,4" stroke="black" stroke-opacity="1" x1="529" y1="41" x2="529" y2="60" />
</g>
<g>
	<line stroke="black" stroke-opacity="1" x1="530" y1="311" x2="536" y2="305" />
	<line stroke="black" stroke-opacity="1" x1="530" y1="311" x2="524" y2="305" />
	<line stroke-dasharray="4,4" stroke="black" stroke-opacity="1" x1="530" y1="287" x2="530" y2="311" />
</g>
<g>
	<line stroke="black" stroke-opacity="1" x1="246" y1="236" x2="252" y2="230" />
	<line stroke="black" stroke-opacity="1" x1="246" y1="236" x2="240" y2="230" />
	<line stroke-dasharray="4,4" stroke="black" stroke-opacity="1" x1="246" y1="220" x2="246" y2="236" />
</g>
<g>
	<line stroke="black" stroke-opacity="1" x1="386" y1="271" x2="392" y2="265" />
	<line stroke="black" stroke-opacity="1" x1="386" y1="271" x2="380" y2="265" />
	<line stroke-dasharray="4,4" stroke="black" stroke-opacity="1" x1="386" y1="253" x2="386" y2="271" />
</g>
<g>
	<rect fill="#cbcbcb" stroke="none" stroke-opacity="1" x="723" y="99" width="3" height="121" />
	<rect fill="#cbcbcb" stroke="none" stroke-opacity="1" x="643" y="217" width="83" height="3" />
	<rect fill="#c0ffff" stroke="black" stroke-width="1" stroke-opacity="1" x="639" y="95" width="84" height="122" />
	<text font-family="Helvetica" font-size="11" fill="#000000" xml:space="preserve" font-weight="bold" text-anchor="middle" x="681" y="108">TSIGKeyInfo</text>
	<line stroke="black" stroke-opacity="1" x1="639" y1="110" x2="723" y2="110" />
	<text font-family="Helvetica" font-size="11" fill="#000000" xml:space="preserve" x="643" y="123">name_</text>
	<text font-family="Helvetica" font-size="11" fill="#000000" xml:space="preserve" x="643" y="136">algorithm_</text>
	<text font-family="Helvetica" font-size="11" fill="#000000" xml:space="preserve" x="643" y="149">secret_</text>
	<line stroke="black" stroke-opacity="1" x1="639" y1="151" x2="723" y2="151" />
	<text font-family="Helvetica" font-size="11" fill="#000000" xml:space="preserve" x="643" y="164">TSIGKeyInfo()</text>
	<text font-family="Helvetica" font-size="11" fill="#000000" xml:space="preserve" x="643" y="177">~TSIGKeyInfo()</text>
	<text font-family="Helvetica" font-size="11" fill="#000000" xml:space="preserve" x="643" y="190">getName()</text>
	<text font-family="Helvetica" font-size="11" fill="#000000" xml:space="preserve" x="643" y="203">getAlgorithm()</text>
	<text font-family="Helvetica" font-size="11" fill="#000000" xml:space="preserve" x="643" y="216">getSecret()</text>
</g>
<g>
	<line stroke-dasharray="4,4" stroke="black" stroke-opacity="1" x1="589" y1="74" x2="683" y2="74" />
</g>
<g>
	<rect fill="#cbcbcb" stroke="none" stroke-opacity="1" x="149" y="9" width="3" height="161" />
	<rect fill="#cbcbcb" stroke="none" stroke-opacity="1" x="11" y="167" width="141" height="3" />
	<rect fill="#c0ffff" stroke="black" stroke-width="1" stroke-opacity="1" x="7" y="5" width="142" height="162" />
	<text font-family="Helvetica" font-size="11" fill="#000000" xml:space="preserve" font-weight="bold" text-anchor="middle" x="78" y="18">D2CfgMgr</text>
	<line stroke="black" stroke-opacity="1" x1="7" y1="20" x2="149" y2="20" />
	<text font-family="Helvetica" font-size="11" fill="#000000" xml:space="preserve" text-decoration="underline" x="11" y="33">IPV4_REV_ZONE_SUFFIX</text>
	<text font-family="Helvetica" font-size="11" fill="#000000" xml:space="preserve" text-decoration="underline" x="11" y="46">IPV6_REV_ZONE_SUFFIX</text>
	<line stroke="black" stroke-opacity="1" x1="7" y1="48" x2="149" y2="48" />
	<text font-family="Helvetica" font-size="11" fill="#000000" xml:space="preserve" x="11" y="61">D2CfgMgr()</text>
	<text font-family="Helvetica" font-size="11" fill="#000000" xml:space="preserve" x="11" y="74">~D2CfgMgr()</text>
	<text font-family="Helvetica" font-size="11" fill="#000000" xml:space="preserve" x="11" y="87">getD2CfgContext()</text>
	<text font-family="Helvetica" font-size="11" fill="#000000" xml:space="preserve" x="11" y="100">matchForward()</text>
	<text font-family="Helvetica" font-size="11" fill="#000000" xml:space="preserve" x="11" y="113">matchReverse()</text>
	<text font-family="Helvetica" font-size="11" fill="#000000" xml:space="preserve" text-decoration="underline" x="11" y="126">reverseIpAddress()</text>
	<text font-family="Helvetica" font-size="11" fill="#000000" xml:space="preserve" text-decoration="underline" x="11" y="139">reverseV4Address()</text>
	<text font-family="Helvetica" font-size="11" fill="#000000" xml:space="preserve" text-decoration="underline" x="11" y="152">reverseV6Address()</text>
	<text font-family="Helvetica" font-size="11" fill="#000000" xml:space="preserve" x="11" y="165">createConfigParser()</text>
</g>
<g>
	<line stroke="black" stroke-opacity="1" x1="683" y1="94" x2="689" y2="88" />
	<line stroke="black" stroke-opacity="1" x1="683" y1="94" x2="677" y2="88" />
	<line stroke-dasharray="4,4" stroke="black" stroke-opacity="1" x1="683" y1="74" x2="683" y2="94" />
</g>
<g>
	<line stroke="black" stroke-opacity="1" x1="82" y1="200" x2="88" y2="194" />
	<line stroke="black" stroke-opacity="1" x1="82" y1="200" x2="76" y2="194" />
	<line stroke-dasharray="4,4" stroke="black" stroke-opacity="1" x1="82" y1="171" x2="82" y2="200" />
</g>
</svg>
