<?xml version="1.0" encoding="UTF-8" standalone="no"?>
<!-- Created with Bouml (http://bouml.free.fr/) -->
<!DOCTYPE svg PUBLIC "-//W3C//DTD SVG 1.1//EN" "http://www.w3.org/Graphics/SVG/1.1/DTD/svg11.dtd">
<svg width="847" height="290" version="1.1" xmlns="http://www.w3.org/2000/svg">
<g>
	<rect fill="#cbcbcb" stroke="none" stroke-opacity="1" x="674" y="8" width="3" height="16" />
	<rect fill="#cbcbcb" stroke="none" stroke-opacity="1" x="606" y="21" width="71" height="3" />
	<rect fill="#ffffc0" stroke="black" stroke-width="1" stroke-opacity="1" x="602" y="4" width="72" height="17" />
	<text font-family="Helvetica" font-size="10" fill="#000000" xml:space="preserve" text-decoration="underline" text-anchor="middle" x="638" y="18">:DCfgMgrBase</text>
</g>
<g>
	<rect fill="#cbcbcb" stroke="none" stroke-opacity="1" x="116" y="8" width="3" height="16" />
	<rect fill="#cbcbcb" stroke="none" stroke-opacity="1" x="28" y="21" width="91" height="3" />
	<rect fill="#ffffc0" stroke="black" stroke-width="1" stroke-opacity="1" x="24" y="4" width="92" height="17" />
	<text font-family="Helvetica" font-size="10" fill="#000000" xml:space="preserve" text-decoration="underline" text-anchor="middle" x="70" y="18">:ModuleCCSession</text>
</g>
<g>
	<line stroke="black" stroke-dasharray="18,6"  stroke-opacity="1" x1="72" y1="45" x2="72" y2="290" />
</g>
<g>
	<rect fill="#cbcbcb" stroke="none" stroke-opacity="1" x="469" y="8" width="3" height="16" />
	<rect fill="#cbcbcb" stroke="none" stroke-opacity="1" x="397" y="21" width="75" height="3" />
	<rect fill="#ffffc0" stroke="black" stroke-width="1" stroke-opacity="1" x="393" y="4" width="76" height="17" />
	<text font-family="Helvetica" font-size="10" fill="#000000" xml:space="preserve" text-decoration="underline" text-anchor="middle" x="431" y="18">:DProcessBase</text>
</g>
<g>
	<line stroke="black" stroke-dasharray="18,6"  stroke-opacity="1" x1="640" y1="45" x2="640" y2="290" />
</g>
<g>
	<line stroke="black" stroke-dasharray="18,6"  stroke-opacity="1" x1="433" y1="45" x2="433" y2="290" />
</g>
<g>
	<line stroke="black" stroke-dasharray="18,6"  stroke-opacity="1" x1="260" y1="45" x2="260" y2="290" />
</g>
<g>
	<rect fill="#cbcbcb" stroke="none" stroke-opacity="1" x="300" y="8" width="3" height="16" />
	<rect fill="#cbcbcb" stroke="none" stroke-opacity="1" x="221" y="21" width="82" height="3" />
	<rect fill="#ffffc0" stroke="black" stroke-width="1" stroke-opacity="1" x="217" y="4" width="83" height="17" />
	<text font-family="Helvetica" font-size="10" fill="#000000" xml:space="preserve" text-decoration="underline" text-anchor="middle" x="259" y="18">:DControllerBase</text>
</g>
<g>
	<rect fill="#ffffff" stroke="black" stroke-width="1" stroke-opacity="1" x="635" y="153" width="10" height="34" />
</g>
<g>
	<rect fill="#ffffff" stroke="black" stroke-width="1" stroke-opacity="1" x="255" y="62" width="10" height="125" />
</g>
<g>
	<rect fill="#ffffff" stroke="black" stroke-width="1" stroke-opacity="1" x="67" y="59" width="10" height="131" />
</g>
<g>
	<rect fill="#ffffff" stroke="black" stroke-width="1" stroke-opacity="1" x="428" y="144" width="10" height="43" />
</g>
<g>
	<line stroke="black" stroke-opacity="1" x1="439" y1="182" x2="635" y2="182" />
	<polygon fill="#000000" stroke="none" points="635,182 631,178 631,186" />
</g>
<g>
	<line stroke="black" stroke-opacity="1" x1="78" y1="67" x2="255" y2="67" />
	<polygon fill="#000000" stroke="none" points="255,67 251,63 251,71" />
</g>
<g>
	<rect fill="#ffffff" stroke="black" stroke-width="1" stroke-opacity="1" x="73" y="104" width="10" height="25" />
</g>
<g>
	<rect fill="#ffffff" stroke="black" stroke-width="1" stroke-opacity="1" x="261" y="95" width="10" height="84" />
</g>
<g>
	<line stroke="black" stroke-opacity="1" x1="272" y1="152" x2="428" y2="152" />
	<polygon fill="#000000" stroke="none" points="428,152 424,148 424,156" />
</g>
<g>
	<path fill="none" stroke="black" stroke-opacity="1" d="M 273 96 L 290 96 L 290 103 L 273 103" />
	<polygon fill="#000000" stroke="none" points="273,103 277,107 277,99" />
</g>
<g>
	<line stroke="black" stroke-opacity="1" x1="84" y1="116" x2="261" y2="116" />
	<polygon fill="#000000" stroke="none" points="84,116 88,112 88,120" />
</g>
<g>
	<text font-family="Helvetica" font-size="10" fill="#000000" xml:space="preserve" x="446" y="206">parseConfig(in new_config : isc::data::ElementPtr) : isc::data::ConstElementPtr</text>
</g>
<g>
	<text font-family="Helvetica" font-size="10" fill="#000000" xml:space="preserve" x="277" y="89">updateConfig(in new_config : isc::data::ConstElementPtr) : isc::data::ConstElementPtr</text>
</g>
<g>
	<text font-family="Helvetica" font-size="10" fill="#000000" xml:space="preserve" x="96" y="113">getFullConfig() : ConstElementPtr</text>
</g>
<g>
	<text font-family="Helvetica" font-size="10" fill="#000000" xml:space="preserve" x="281" y="145">configure(in config_set : isc::data::ConstElementPtr) : isc::data::ConstElementPtr</text>
</g>
<g>
	<text font-family="Helvetica" font-size="10" fill="#000000" xml:space="preserve" x="79" y="59">configHandler(in new_config : isc::data::ConstElementPtr) : isc::data::ConstElementPtr</text>
</g>
</svg>
