<?xml version="1.0" encoding="UTF-8" standalone="no"?>
<!-- Created with Bouml (http://bouml.free.fr/) -->
<!DOCTYPE svg PUBLIC "-//W3C//DTD SVG 1.1//EN" "http://www.w3.org/Graphics/SVG/1.1/DTD/svg11.dtd">
<svg width="746" height="226" version="1.1" xmlns="http://www.w3.org/2000/svg">
<g>
	<line stroke="black" stroke-dasharray="18,6"  stroke-opacity="1" x1="214" y1="45" x2="214" y2="226" />
</g>
<g>
	<rect fill="#cbcbcb" stroke="none" stroke-opacity="1" x="261" y="8" width="3" height="18" />
	<rect fill="#cbcbcb" stroke="none" stroke-opacity="1" x="167" y="23" width="97" height="3" />
	<rect fill="#ffffc0" stroke="black" stroke-width="1" stroke-opacity="1" x="163" y="4" width="98" height="19" />
	<text font-family="Helvetica" font-size="12" fill="#000000" xml:space="preserve" text-decoration="underline" text-anchor="middle" x="212" y="20">:DControllerBase</text>
</g>
<g>
	<rect fill="#cbcbcb" stroke="none" stroke-opacity="1" x="730" y="8" width="3" height="18" />
	<rect fill="#cbcbcb" stroke="none" stroke-opacity="1" x="648" y="23" width="85" height="3" />
	<rect fill="#ffffc0" stroke="black" stroke-width="1" stroke-opacity="1" x="644" y="4" width="86" height="19" />
	<text font-family="Helvetica" font-size="12" fill="#000000" xml:space="preserve" text-decoration="underline" text-anchor="middle" x="687" y="20">:DCfgMgrBase</text>
</g>
<g>
	<line stroke="black" stroke-dasharray="18,6"  stroke-opacity="1" x1="689" y1="45" x2="689" y2="226" />
</g>
<g>
	<rect fill="#cbcbcb" stroke="none" stroke-opacity="1" x="488" y="8" width="3" height="18" />
	<rect fill="#cbcbcb" stroke="none" stroke-opacity="1" x="402" y="23" width="89" height="3" />
	<rect fill="#ffffc0" stroke="black" stroke-width="1" stroke-opacity="1" x="398" y="4" width="90" height="19" />
	<text font-family="Helvetica" font-size="12" fill="#000000" xml:space="preserve" text-decoration="underline" text-anchor="middle" x="443" y="20">:DProcessBase</text>
</g>
<g>
	<line stroke="black" stroke-dasharray="18,6"  stroke-opacity="1" x1="445" y1="45" x2="445" y2="226" />
</g>
<g>
	<rect fill="none" stroke="black" stroke-width="1" stroke-opacity="1" x="684" y="180" width="10" height="24" />
</g>
<g>
	<rect fill="none" stroke="black" stroke-width="1" stroke-opacity="1" x="440" y="175" width="10" height="28" />
</g>
<g>
	<rect fill="none" stroke="black" stroke-width="1" stroke-opacity="1" x="209" y="67" width="10" height="147" />
</g>
<g>
	<line stroke="black" stroke-opacity="1" x1="451" y1="194" x2="684" y2="194" />
	<polygon fill="#000000" stroke="none" points="684,194 680,190 680,198" />
</g>
<g>
	<line stroke="black" stroke-opacity="1" x1="39" y1="72" x2="209" y2="72" />
	<polygon fill="#000000" stroke="none" points="209,72 205,68 205,76" />
</g>
<ellipse fill="black" stroke="none" cx="34.5" cy="73.5" rx="4.5" ry="4.5" />
<g>
	<rect fill="none" stroke="black" stroke-width="1" stroke-opacity="1" x="215" y="164" width="10" height="37" />
</g>
<g>
	<rect fill="none" stroke="black" stroke-width="1" stroke-opacity="1" x="215" y="99" width="10" height="24" />
</g>
<g>
	<line stroke="black" stroke-opacity="1" x1="226" y1="187" x2="440" y2="187" />
	<polygon fill="#000000" stroke="none" points="440,187 436,183 436,191" />
</g>
<g>
	<path fill="none" stroke="black" stroke-opacity="1" d="M 227 100 L 244 100 L 244 107 L 227 107" />
	<polygon fill="#000000" stroke="none" points="227,107 231,111 231,103" />
</g>
<g>
	<path fill="none" stroke="black" stroke-opacity="1" d="M 227 165 L 244 165 L 244 172 L 227 172" />
	<polygon fill="#000000" stroke="none" points="227,172 231,176 231,168" />
</g>
<g>
	<text font-family="Helvetica" font-size="12" fill="#000000" xml:space="preserve" x="231" y="160">updateConfig()</text>
</g>
<g>
	<text font-family="Helvetica" font-size="12" fill="#000000" xml:space="preserve" x="111" y="67">configFromFile()</text>
</g>
<g>
	<text font-family="Helvetica" font-size="12" fill="#000000" xml:space="preserve" x="591" y="191">parseConfig()</text>
</g>
<g>
	<text font-family="Helvetica" font-size="12" fill="#000000" xml:space="preserve" x="372" y="182">configure()</text>
</g>
<g>
	<text font-family="Helvetica" font-size="12" fill="#000000" xml:space="preserve" x="224" y="95">getConfigFileName()</text>
</g>
</svg>
