<?xml version="1.0" encoding="UTF-8" standalone="no"?>
<!-- Created with Bouml (http://bouml.free.fr/) -->
<!DOCTYPE svg PUBLIC "-//W3C//DTD SVG 1.1//EN" "http://www.w3.org/Graphics/SVG/1.1/DTD/svg11.dtd">
<svg width="804" height="836" version="1.1" xmlns="http://www.w3.org/2000/svg">
<g>
	<rect fill="#cbcbcb" stroke="none" stroke-opacity="1" x="344" y="10" width="3" height="495" />
	<rect fill="#cbcbcb" stroke="none" stroke-opacity="1" x="186" y="502" width="161" height="3" />
	<rect fill="#ffffc0" stroke="black" stroke-width="1" stroke-opacity="1" x="182" y="6" width="162" height="496" />
	<text font-family="Helvetica" font-size="12" fill="#000000" xml:space="preserve" font-weight="bold" font-style="italic" text-anchor="middle" x="263" y="20">DControllerBase</text>
	<line stroke="black" stroke-opacity="1" x1="182" y1="22" x2="344" y2="22" />
	<text font-family="Helvetica" font-size="12" fill="#000000" xml:space="preserve" x="186" y="36">app_name_</text>
	<text font-family="Helvetica" font-size="12" fill="#000000" xml:space="preserve" x="186" y="50">bin_name_</text>
	<text font-family="Helvetica" font-size="12" fill="#000000" xml:space="preserve" x="186" y="64">verbose_</text>
	<text font-family="Helvetica" font-size="12" fill="#000000" xml:space="preserve" x="186" y="78">spec_file_name_</text>
	<line stroke="black" stroke-opacity="1" x1="182" y1="80" x2="344" y2="80" />
	<text font-family="Helvetica" font-size="12" fill="#000000" xml:space="preserve" x="186" y="94">DControllerBase()</text>
	<text font-family="Helvetica" font-size="12" fill="#000000" xml:space="preserve" x="186" y="108">~DControllerBase()</text>
	<text font-family="Helvetica" font-size="12" fill="#000000" xml:space="preserve" x="186" y="122">launch()</text>
	<text font-family="Helvetica" font-size="12" fill="#000000" xml:space="preserve" x="186" y="136">updateConfig()</text>
	<text font-family="Helvetica" font-size="12" fill="#000000" xml:space="preserve" x="186" y="150">configFromFile()</text>
	<text font-family="Helvetica" font-size="12" fill="#000000" xml:space="preserve" x="186" y="164">executeCommand()</text>
	<text font-family="Helvetica" font-size="12" fill="#000000" xml:space="preserve" x="186" y="178">getAppName()</text>
	<text font-family="Helvetica" font-size="12" fill="#000000" xml:space="preserve" x="186" y="192">getBinName()</text>
	<text font-family="Helvetica" font-size="12" fill="#000000" xml:space="preserve" x="186" y="206">customOption()</text>
	<text font-family="Helvetica" font-size="12" fill="#000000" xml:space="preserve" font-style="italic" x="186" y="220">createProcess()</text>
	<text font-family="Helvetica" font-size="12" fill="#000000" xml:space="preserve" x="186" y="234">customControllerCommand()</text>
	<text font-family="Helvetica" font-size="12" fill="#000000" xml:space="preserve" x="186" y="248">getUsageText()</text>
	<text font-family="Helvetica" font-size="12" fill="#000000" xml:space="preserve" x="186" y="262">getCustomOpts()</text>
	<text font-family="Helvetica" font-size="12" fill="#000000" xml:space="preserve" x="186" y="276">processSignal()</text>
	<text font-family="Helvetica" font-size="12" fill="#000000" xml:space="preserve" x="186" y="290">isVerbose()</text>
	<text font-family="Helvetica" font-size="12" fill="#000000" xml:space="preserve" x="186" y="304">setVerbose()</text>
	<text font-family="Helvetica" font-size="12" fill="#000000" xml:space="preserve" x="186" y="318">getIOService()</text>
	<text font-family="Helvetica" font-size="12" fill="#000000" xml:space="preserve" x="186" y="332">getSpecFileName()</text>
	<text font-family="Helvetica" font-size="12" fill="#000000" xml:space="preserve" x="186" y="346">setSpecFileName()</text>
	<text font-family="Helvetica" font-size="12" fill="#000000" xml:space="preserve" text-decoration="underline" x="186" y="360">getController()</text>
	<text font-family="Helvetica" font-size="12" fill="#000000" xml:space="preserve" text-decoration="underline" x="186" y="374">setController()</text>
	<text font-family="Helvetica" font-size="12" fill="#000000" xml:space="preserve" x="186" y="388">parseArgs()</text>
	<text font-family="Helvetica" font-size="12" fill="#000000" xml:space="preserve" x="186" y="402">initProcess()</text>
	<text font-family="Helvetica" font-size="12" fill="#000000" xml:space="preserve" x="186" y="416">runProcess()</text>
	<text font-family="Helvetica" font-size="12" fill="#000000" xml:space="preserve" x="186" y="430">shutdownProcess()</text>
	<text font-family="Helvetica" font-size="12" fill="#000000" xml:space="preserve" x="186" y="444">initSignalHandling()</text>
	<text font-family="Helvetica" font-size="12" fill="#000000" xml:space="preserve" x="186" y="458">osSignalHandler()</text>
	<text font-family="Helvetica" font-size="12" fill="#000000" xml:space="preserve" x="186" y="472">ioSignalHandler()</text>
	<text font-family="Helvetica" font-size="12" fill="#000000" xml:space="preserve" x="186" y="486">getProcess()</text>
	<text font-family="Helvetica" font-size="12" fill="#000000" xml:space="preserve" x="186" y="500">usage()</text>
</g>
<g>
	<rect fill="#cbcbcb" stroke="none" stroke-opacity="1" x="737" y="207" width="3" height="47" />
	<rect fill="#cbcbcb" stroke="none" stroke-opacity="1" x="667" y="251" width="73" height="3" />
	<rect fill="#c0ffff" stroke="black" stroke-width="1" stroke-opacity="1" x="663" y="203" width="74" height="48" />
	<text font-family="Helvetica" font-size="12" fill="#000000" xml:space="preserve" text-anchor="middle" x="700" y="217">&lt;&lt;typedef&gt;&gt;</text>
	<text font-family="Helvetica" font-size="12" fill="#000000" xml:space="preserve" font-weight="bold" text-anchor="middle" x="700" y="233">IOSignalPtr</text>
	<line stroke="black" stroke-opacity="1" x1="663" y1="235" x2="737" y2="235" />
	<line stroke="black" stroke-opacity="1" x1="663" y1="243" x2="737" y2="243" />
</g>
<g>
	<rect fill="#cbcbcb" stroke="none" stroke-opacity="1" x="467" y="353" width="3" height="47" />
	<rect fill="#cbcbcb" stroke="none" stroke-opacity="1" x="371" y="397" width="99" height="3" />
	<rect fill="#c0ffff" stroke="black" stroke-width="1" stroke-opacity="1" x="367" y="349" width="100" height="48" />
	<text font-family="Helvetica" font-size="12" fill="#000000" xml:space="preserve" text-anchor="middle" x="417" y="363">&lt;&lt;typedef&gt;&gt;</text>
	<text font-family="Helvetica" font-size="12" fill="#000000" xml:space="preserve" font-weight="bold" text-anchor="middle" x="417" y="379">IOSignalHandler</text>
	<line stroke="black" stroke-opacity="1" x1="367" y1="381" x2="467" y2="381" />
	<line stroke="black" stroke-opacity="1" x1="367" y1="389" x2="467" y2="389" />
</g>
	<rect fill="#c0ffff" stroke="none" stroke-opacity="1" x="323" y="800" width="268" height="25" />
	<text font-family="Helvetica" font-size="12" fill="#000000" xml:space="preserve" font-weight="bold" x="323" y="812">Blue class integrate signal handling into D2</text>
<g>
	<line stroke-dasharray="4,4" stroke="black" stroke-opacity="1" x1="348" y1="278" x2="419" y2="278" />
</g>
<g>
	<line stroke="black" stroke-opacity="1" x1="419" y1="348" x2="425" y2="342" />
	<line stroke="black" stroke-opacity="1" x1="419" y1="348" x2="413" y2="342" />
	<line stroke-dasharray="4,4" stroke="black" stroke-opacity="1" x1="419" y1="278" x2="419" y2="348" />
</g>
<g>
	<rect fill="#cbcbcb" stroke="none" stroke-opacity="1" x="751" y="309" width="3" height="103" />
	<rect fill="#cbcbcb" stroke="none" stroke-opacity="1" x="653" y="409" width="101" height="3" />
	<rect fill="#c0ffff" stroke="black" stroke-width="1" stroke-opacity="1" x="649" y="305" width="102" height="104" />
	<text font-family="Helvetica" font-size="12" fill="#000000" xml:space="preserve" font-weight="bold" text-anchor="middle" x="700" y="319">IOSignal</text>
	<line stroke="black" stroke-opacity="1" x1="649" y1="321" x2="751" y2="321" />
	<text font-family="Helvetica" font-size="12" fill="#000000" xml:space="preserve" x="653" y="335">signum_</text>
	<line stroke="black" stroke-opacity="1" x1="649" y1="337" x2="751" y2="337" />
	<text font-family="Helvetica" font-size="12" fill="#000000" xml:space="preserve" x="653" y="351">IOSignal()</text>
	<text font-family="Helvetica" font-size="12" fill="#000000" xml:space="preserve" x="653" y="365">~IOSignal()</text>
	<text font-family="Helvetica" font-size="12" fill="#000000" xml:space="preserve" text-decoration="underline" x="653" y="379">nextSequenceId()</text>
	<text font-family="Helvetica" font-size="12" fill="#000000" xml:space="preserve" x="653" y="393">getSequenceId()</text>
	<text font-family="Helvetica" font-size="12" fill="#000000" xml:space="preserve" x="653" y="407">getSignum()</text>
</g>
<g>
	<line stroke="black" stroke-opacity="1" x1="698" y1="304" x2="703" y2="297" />
	<line stroke="black" stroke-opacity="1" x1="698" y1="304" x2="691" y2="298" />
	<line stroke-dasharray="4,4" stroke="black" stroke-opacity="1" x1="697" y1="255" x2="698" y2="304" />
</g>
<g>
	<text font-family="Helvetica" font-size="12" fill="#000000" xml:space="preserve" x="538" y="197">signals_</text>
</g>
<g>
	<text font-family="Helvetica" font-size="12" fill="#000000" xml:space="preserve" x="100" y="444">signal_set_</text>
</g>
<g>
	<text font-family="Helvetica" font-size="12" fill="#000000" xml:space="preserve" x="566" y="314">sequence_id_</text>
</g>
<g>
	<text font-family="Helvetica" font-size="12" fill="#000000" xml:space="preserve" text-decoration="underline" x="193" y="703">onreceipt_handler_</text>
</g>
<g>
	<text font-family="Helvetica" font-size="12" fill="#000000" xml:space="preserve" x="454" y="27">io_signal_queue_</text>
</g>
<g>
	<text font-family="Helvetica" font-size="12" fill="#000000" xml:space="preserve" x="599" y="729">io_service_</text>
</g>
<g>
	<text font-family="Helvetica" font-size="12" fill="#000000" xml:space="preserve" x="433" y="729">io_service_</text>
</g>
<g>
	<text font-family="Helvetica" font-size="12" fill="#000000" xml:space="preserve" x="549" y="424">sequence_id_</text>
</g>
<g>
	<text font-family="Helvetica" font-size="12" fill="#000000" xml:space="preserve" x="429" y="419">handler_</text>
</g>
<g>
	<text font-family="Helvetica" font-size="12" fill="#000000" xml:space="preserve" x="724" y="539">timer_</text>
</g>
<g>
	<rect fill="#cbcbcb" stroke="none" stroke-opacity="1" x="669" y="10" width="3" height="47" />
	<rect fill="#cbcbcb" stroke="none" stroke-opacity="1" x="563" y="54" width="109" height="3" />
	<rect fill="#c0ffff" stroke="black" stroke-width="1" stroke-opacity="1" x="559" y="6" width="110" height="48" />
	<text font-family="Helvetica" font-size="12" fill="#000000" xml:space="preserve" text-anchor="middle" x="614" y="20">&lt;&lt;typedef&gt;&gt;</text>
	<text font-family="Helvetica" font-size="12" fill="#000000" xml:space="preserve" font-weight="bold" text-anchor="middle" x="614" y="36">IOSignalQueuePtr</text>
	<line stroke="black" stroke-opacity="1" x1="559" y1="38" x2="669" y2="38" />
	<line stroke="black" stroke-opacity="1" x1="559" y1="46" x2="669" y2="46" />
</g>
<g>
	<line stroke="black" stroke-opacity="1" x1="558" y1="31" x2="552" y2="25" />
	<line stroke="black" stroke-opacity="1" x1="558" y1="31" x2="552" y2="37" />
	<line stroke="black" stroke-opacity="1" x1="348" y1="31" x2="558" y2="31" />
	<polygon fill="#000000" stroke="black" stroke-opacity="1" points="348,31 354,25 360,31 354,37" />
</g>
<g>
	<rect fill="#cbcbcb" stroke="none" stroke-opacity="1" x="668" y="77" width="3" height="95" />
	<rect fill="#cbcbcb" stroke="none" stroke-opacity="1" x="568" y="169" width="103" height="3" />
	<rect fill="#c0ffff" stroke="black" stroke-width="1" stroke-opacity="1" x="564" y="73" width="104" height="96" />
	<text font-family="Helvetica" font-size="12" fill="#000000" xml:space="preserve" font-weight="bold" text-anchor="middle" x="616" y="87">IOSignalQueue</text>
	<line stroke="black" stroke-opacity="1" x1="564" y1="89" x2="668" y2="89" />
	<line stroke="black" stroke-opacity="1" x1="564" y1="97" x2="668" y2="97" />
	<text font-family="Helvetica" font-size="12" fill="#000000" xml:space="preserve" x="568" y="111">IOSignalQueue()</text>
	<text font-family="Helvetica" font-size="12" fill="#000000" xml:space="preserve" x="568" y="125">~IOSignalQueue()</text>
	<text font-family="Helvetica" font-size="12" fill="#000000" xml:space="preserve" x="568" y="139">pushSignal()</text>
	<text font-family="Helvetica" font-size="12" fill="#000000" xml:space="preserve" x="568" y="153">popSignal()</text>
	<text font-family="Helvetica" font-size="12" fill="#000000" xml:space="preserve" x="568" y="167">clear()</text>
</g>
<g>
	<line stroke="black" stroke-opacity="1" x1="618" y1="72" x2="624" y2="66" />
	<line stroke="black" stroke-opacity="1" x1="618" y1="72" x2="612" y2="66" />
	<line stroke-dasharray="4,4" stroke="black" stroke-opacity="1" x1="618" y1="58" x2="618" y2="72" />
</g>
<g>
	<rect fill="#cbcbcb" stroke="none" stroke-opacity="1" x="168" y="532" width="3" height="285" />
	<rect fill="#cbcbcb" stroke="none" stroke-opacity="1" x="24" y="814" width="147" height="3" />
	<rect fill="#ffffc0" stroke="black" stroke-width="1" stroke-opacity="1" x="20" y="528" width="148" height="286" />
	<text font-family="Helvetica" font-size="12" fill="#000000" xml:space="preserve" font-weight="bold" text-anchor="middle" x="94" y="542">SignalSet</text>
	<line stroke="black" stroke-opacity="1" x1="20" y1="544" x2="168" y2="544" />
	<text font-family="Helvetica" font-size="12" fill="#000000" xml:space="preserve" x="24" y="558">local_signals_</text>
	<line stroke="black" stroke-opacity="1" x1="20" y1="560" x2="168" y2="560" />
	<text font-family="Helvetica" font-size="12" fill="#000000" xml:space="preserve" x="24" y="574">SignalSet()</text>
	<text font-family="Helvetica" font-size="12" fill="#000000" xml:space="preserve" x="24" y="588">SignalSet()</text>
	<text font-family="Helvetica" font-size="12" fill="#000000" xml:space="preserve" x="24" y="602">SignalSet()</text>
	<text font-family="Helvetica" font-size="12" fill="#000000" xml:space="preserve" x="24" y="616">~SignalSet()</text>
	<text font-family="Helvetica" font-size="12" fill="#000000" xml:space="preserve" x="24" y="630">add()</text>
	<text font-family="Helvetica" font-size="12" fill="#000000" xml:space="preserve" x="24" y="644">clear()</text>
	<text font-family="Helvetica" font-size="12" fill="#000000" xml:space="preserve" x="24" y="658">getNext()</text>
	<text font-family="Helvetica" font-size="12" fill="#000000" xml:space="preserve" x="24" y="672">handleNext()</text>
	<text font-family="Helvetica" font-size="12" fill="#000000" xml:space="preserve" x="24" y="686">remove()</text>
	<text font-family="Helvetica" font-size="12" fill="#000000" xml:space="preserve" text-decoration="underline" x="24" y="700">setOnReceiptHandler()</text>
	<text font-family="Helvetica" font-size="12" fill="#000000" xml:space="preserve" text-decoration="underline" x="24" y="714">clearOnReceiptHandler()</text>
	<text font-family="Helvetica" font-size="12" fill="#000000" xml:space="preserve" text-decoration="underline" x="24" y="728">invokeOnReceiptHandler()</text>
	<text font-family="Helvetica" font-size="12" fill="#000000" xml:space="preserve" x="24" y="742">block()</text>
	<text font-family="Helvetica" font-size="12" fill="#000000" xml:space="preserve" x="24" y="756">erase()</text>
	<text font-family="Helvetica" font-size="12" fill="#000000" xml:space="preserve" x="24" y="770">insert()</text>
	<text font-family="Helvetica" font-size="12" fill="#000000" xml:space="preserve" x="24" y="784">maskSignals()</text>
	<text font-family="Helvetica" font-size="12" fill="#000000" xml:space="preserve" x="24" y="798">popNext()</text>
	<text font-family="Helvetica" font-size="12" fill="#000000" xml:space="preserve" x="24" y="812">unblock()</text>
</g>
<g>
	<rect fill="#cbcbcb" stroke="none" stroke-opacity="1" x="566" y="206" width="3" height="47" />
	<rect fill="#cbcbcb" stroke="none" stroke-opacity="1" x="490" y="250" width="79" height="3" />
	<rect fill="#c0ffff" stroke="black" stroke-width="1" stroke-opacity="1" x="486" y="202" width="80" height="48" />
	<text font-family="Helvetica" font-size="12" fill="#000000" xml:space="preserve" text-anchor="middle" x="526" y="216">&lt;&lt;typedef&gt;&gt;</text>
	<text font-family="Helvetica" font-size="12" fill="#000000" xml:space="preserve" font-weight="bold" text-anchor="middle" x="526" y="232">IOSignalMap</text>
	<line stroke="black" stroke-opacity="1" x1="486" y1="234" x2="566" y2="234" />
	<line stroke="black" stroke-opacity="1" x1="486" y1="242" x2="566" y2="242" />
</g>
<g>
	<rect fill="#cbcbcb" stroke="none" stroke-opacity="1" x="585" y="712" width="3" height="47" />
	<rect fill="#cbcbcb" stroke="none" stroke-opacity="1" x="509" y="756" width="79" height="3" />
	<rect fill="#ffffc0" stroke="black" stroke-width="1" stroke-opacity="1" x="505" y="708" width="80" height="48" />
	<text font-family="Helvetica" font-size="12" fill="#000000" xml:space="preserve" text-anchor="middle" x="545" y="722">&lt;&lt;typedef&gt;&gt;</text>
	<text font-family="Helvetica" font-size="12" fill="#000000" xml:space="preserve" font-weight="bold" text-anchor="middle" x="545" y="738">IOServicePtr</text>
	<line stroke="black" stroke-opacity="1" x1="505" y1="740" x2="585" y2="740" />
	<line stroke="black" stroke-opacity="1" x1="505" y1="748" x2="585" y2="748" />
</g>
<g>
	<line stroke="black" stroke-opacity="1" x1="563" y1="123" x2="528" y2="123" />
	<polygon fill="#000000" stroke="black" stroke-opacity="1" points="563,123 557,129 551,123 557,117" />
</g>
<g>
	<line stroke="black" stroke-opacity="1" x1="528" y1="201" x2="534" y2="195" />
	<line stroke="black" stroke-opacity="1" x1="528" y1="201" x2="522" y2="195" />
	<line stroke="black" stroke-opacity="1" x1="528" y1="123" x2="528" y2="201" />
</g>
<g>
	<line stroke="black" stroke-opacity="1" x1="662" y1="228" x2="656" y2="222" />
	<line stroke="black" stroke-opacity="1" x1="662" y1="228" x2="656" y2="234" />
	<line stroke-dasharray="4,4" stroke="black" stroke-opacity="1" x1="570" y1="228" x2="662" y2="228" />
</g>
<g>
	<line stroke="black" stroke-opacity="1" x1="672" y1="120" x2="783" y2="120" />
	<polygon fill="#000000" stroke="black" stroke-opacity="1" points="672,120 678,114 684,120 678,126" />
</g>
<g>
	<line stroke="black" stroke-opacity="1" x1="783" y1="120" x2="784" y2="733" />
</g>
<g>
	<line stroke="black" stroke-opacity="1" x1="589" y1="733" x2="595" y2="739" />
	<line stroke="black" stroke-opacity="1" x1="589" y1="733" x2="595" y2="727" />
	<line stroke="black" stroke-opacity="1" x1="784" y1="733" x2="589" y2="733" />
</g>
<g>
	<line stroke="black" stroke-opacity="1" x1="336" y1="506" x2="336" y2="734" />
	<polygon fill="#000000" stroke="black" stroke-opacity="1" points="336,506 342,512 336,518 330,512" />
</g>
<g>
	<line stroke="black" stroke-opacity="1" x1="504" y1="734" x2="498" y2="728" />
	<line stroke="black" stroke-opacity="1" x1="504" y1="734" x2="498" y2="740" />
	<line stroke="black" stroke-opacity="1" x1="336" y1="734" x2="504" y2="734" />
</g>
<g>
	<rect fill="#cbcbcb" stroke="none" stroke-opacity="1" x="127" y="453" width="3" height="47" />
	<rect fill="#cbcbcb" stroke="none" stroke-opacity="1" x="53" y="497" width="77" height="3" />
	<rect fill="#ffffc0" stroke="black" stroke-width="1" stroke-opacity="1" x="49" y="449" width="78" height="48" />
	<text font-family="Helvetica" font-size="12" fill="#000000" xml:space="preserve" text-anchor="middle" x="88" y="463">&lt;&lt;typedef&gt;&gt;</text>
	<text font-family="Helvetica" font-size="12" fill="#000000" xml:space="preserve" font-weight="bold" text-anchor="middle" x="88" y="479">SignalSetPtr</text>
	<line stroke="black" stroke-opacity="1" x1="49" y1="481" x2="127" y2="481" />
	<line stroke="black" stroke-opacity="1" x1="49" y1="489" x2="127" y2="489" />
</g>
<g>
	<rect fill="#cbcbcb" stroke="none" stroke-opacity="1" x="318" y="584" width="3" height="47" />
	<rect fill="#cbcbcb" stroke="none" stroke-opacity="1" x="208" y="628" width="113" height="3" />
	<rect fill="#c0ffff" stroke="black" stroke-width="1" stroke-opacity="1" x="204" y="580" width="114" height="48" />
	<text font-family="Helvetica" font-size="12" fill="#000000" xml:space="preserve" text-anchor="middle" x="261" y="594">&lt;&lt;typedef&gt;&gt;</text>
	<text font-family="Helvetica" font-size="12" fill="#000000" xml:space="preserve" font-weight="bold" text-anchor="middle" x="261" y="610">BoolSignalHandler</text>
	<line stroke="black" stroke-opacity="1" x1="204" y1="612" x2="318" y2="612" />
	<line stroke="black" stroke-opacity="1" x1="204" y1="620" x2="318" y2="620" />
</g>
<g>
	<rect fill="#cbcbcb" stroke="none" stroke-opacity="1" x="574" y="358" width="3" height="47" />
	<rect fill="#cbcbcb" stroke="none" stroke-opacity="1" x="504" y="402" width="73" height="3" />
	<rect fill="#c0ffff" stroke="black" stroke-width="1" stroke-opacity="1" x="500" y="354" width="74" height="48" />
	<text font-family="Helvetica" font-size="12" fill="#000000" xml:space="preserve" text-anchor="middle" x="537" y="368">&lt;&lt;typedef&gt;&gt;</text>
	<text font-family="Helvetica" font-size="12" fill="#000000" xml:space="preserve" font-weight="bold" text-anchor="middle" x="537" y="384">IOSignalId</text>
	<line stroke="black" stroke-opacity="1" x1="500" y1="386" x2="574" y2="386" />
	<line stroke="black" stroke-opacity="1" x1="500" y1="394" x2="574" y2="394" />
</g>
<g>
	<line stroke="black" stroke-opacity="1" x1="90" y1="527" x2="96" y2="521" />
	<line stroke="black" stroke-opacity="1" x1="90" y1="527" x2="84" y2="521" />
	<line stroke-dasharray="4,4" stroke="black" stroke-opacity="1" x1="90" y1="501" x2="90" y2="527" />
</g>
<g>
	<line stroke="black" stroke-opacity="1" x1="263" y1="632" x2="257" y2="638" />
	<line stroke="black" stroke-opacity="1" x1="263" y1="632" x2="269" y2="638" />
	<line stroke="black" stroke-opacity="1" x1="263" y1="673" x2="263" y2="632" />
</g>
<g>
	<line stroke="black" stroke-opacity="1" x1="181" y1="401" x2="90" y2="401" />
	<polygon fill="#000000" stroke="black" stroke-opacity="1" points="181,401 175,407 169,401 175,395" />
</g>
<g>
	<line stroke="black" stroke-opacity="1" x1="172" y1="673" x2="263" y2="673" />
	<polygon fill="#000000" stroke="black" stroke-opacity="1" points="172,673 178,667 184,673 178,679" />
</g>
<g>
	<line stroke="black" stroke-opacity="1" x1="90" y1="448" x2="96" y2="442" />
	<line stroke="black" stroke-opacity="1" x1="90" y1="448" x2="84" y2="442" />
	<line stroke="black" stroke-opacity="1" x1="90" y1="401" x2="90" y2="448" />
</g>
<g>
	<line stroke="black" stroke-opacity="1" x1="648" y1="327" x2="560" y2="327" />
	<polygon fill="#000000" stroke="black" stroke-opacity="1" points="648,327 642,333 636,327 642,321" />
</g>
<g>
	<line stroke="black" stroke-opacity="1" x1="560" y1="353" x2="566" y2="347" />
	<line stroke="black" stroke-opacity="1" x1="560" y1="353" x2="554" y2="347" />
	<line stroke="black" stroke-opacity="1" x1="560" y1="327" x2="560" y2="353" />
</g>
<g>
	<line stroke="black" stroke-opacity="1" x1="499" y1="377" x2="493" y2="370" />
	<line stroke="black" stroke-opacity="1" x1="499" y1="377" x2="492" y2="382" />
	<line stroke-dasharray="4,4" stroke="black" stroke-opacity="1" x1="471" y1="376" x2="499" y2="377" />
</g>
<g>
	<line stroke="black" stroke-opacity="1" x1="267" y1="579" x2="273" y2="573" />
	<line stroke="black" stroke-opacity="1" x1="267" y1="579" x2="261" y2="572" />
	<line stroke-dasharray="4,4" stroke="black" stroke-opacity="1" x1="268" y1="506" x2="267" y2="579" />
</g>
<g>
	<line stroke="black" stroke-opacity="1" x1="531" y1="353" x2="536" y2="346" />
	<line stroke="black" stroke-opacity="1" x1="531" y1="353" x2="524" y2="347" />
	<line stroke-dasharray="4,4" stroke="black" stroke-opacity="1" x1="529" y1="254" x2="531" y2="353" />
</g>
<g>
	<rect fill="#cbcbcb" stroke="none" stroke-opacity="1" x="588" y="551" width="3" height="123" />
	<rect fill="#cbcbcb" stroke="none" stroke-opacity="1" x="500" y="671" width="91" height="3" />
	<rect fill="#ffffc0" stroke="black" stroke-width="1" stroke-opacity="1" x="496" y="547" width="92" height="124" />
	<text font-family="Helvetica" font-size="12" fill="#000000" xml:space="preserve" font-weight="bold" text-anchor="middle" x="542" y="561">IntervalTimer</text>
	<line stroke="black" stroke-opacity="1" x1="496" y1="563" x2="588" y2="563" />
	<line stroke="black" stroke-opacity="1" x1="496" y1="571" x2="588" y2="571" />
	<text font-family="Helvetica" font-size="12" fill="#000000" xml:space="preserve" x="500" y="585">IntervalTimer()</text>
	<text font-family="Helvetica" font-size="12" fill="#000000" xml:space="preserve" x="500" y="599">operator =()</text>
	<text font-family="Helvetica" font-size="12" fill="#000000" xml:space="preserve" x="500" y="613">IntervalTimer()</text>
	<text font-family="Helvetica" font-size="12" fill="#000000" xml:space="preserve" x="500" y="627">~IntervalTimer()</text>
	<text font-family="Helvetica" font-size="12" fill="#000000" xml:space="preserve" x="500" y="641">setup()</text>
	<text font-family="Helvetica" font-size="12" fill="#000000" xml:space="preserve" x="500" y="655">cancel()</text>
	<text font-family="Helvetica" font-size="12" fill="#000000" xml:space="preserve" x="500" y="669">getInterval()</text>
</g>
<g>
	<line stroke="black" stroke-opacity="1" x1="546" y1="707" x2="551" y2="700" />
	<line stroke="black" stroke-opacity="1" x1="546" y1="707" x2="539" y2="701" />
	<line stroke-dasharray="4,4" stroke="black" stroke-opacity="1" x1="545" y1="675" x2="546" y2="707" />
</g>
<g>
	<rect fill="#cbcbcb" stroke="none" stroke-opacity="1" x="585" y="463" width="3" height="53" />
	<rect fill="#cbcbcb" stroke="none" stroke-opacity="1" x="497" y="513" width="91" height="3" />
	<rect fill="#c0ffff" stroke="black" stroke-width="1" stroke-opacity="1" x="493" y="459" width="92" height="54" />
	<text font-family="Helvetica" font-size="12" fill="#000000" xml:space="preserve" font-weight="bold" text-anchor="middle" x="539" y="473">TimerCallback</text>
	<line stroke="black" stroke-opacity="1" x1="493" y1="475" x2="585" y2="475" />
	<line stroke="black" stroke-opacity="1" x1="493" y1="483" x2="585" y2="483" />
	<text font-family="Helvetica" font-size="12" fill="#000000" xml:space="preserve" x="497" y="497">TimerCallback()</text>
	<text font-family="Helvetica" font-size="12" fill="#000000" xml:space="preserve" x="497" y="511">operator ()()</text>
</g>
<g>
	<rect fill="#cbcbcb" stroke="none" stroke-opacity="1" x="763" y="548" width="3" height="47" />
	<rect fill="#cbcbcb" stroke="none" stroke-opacity="1" x="667" y="592" width="99" height="3" />
	<rect fill="#c0ffff" stroke="black" stroke-width="1" stroke-opacity="1" x="663" y="544" width="100" height="48" />
	<text font-family="Helvetica" font-size="12" fill="#000000" xml:space="preserve" text-anchor="middle" x="713" y="558">&lt;&lt;typedef&gt;&gt;</text>
	<text font-family="Helvetica" font-size="12" fill="#000000" xml:space="preserve" font-weight="bold" text-anchor="middle" x="713" y="574">IntervalTimerPtr</text>
	<line stroke="black" stroke-opacity="1" x1="663" y1="576" x2="763" y2="576" />
	<line stroke="black" stroke-opacity="1" x1="663" y1="584" x2="763" y2="584" />
</g>
<g>
	<line stroke="black" stroke-opacity="1" x1="671" y1="488" x2="671" y2="425" />
<ellipse fill="none" stroke="black" stroke-width="1" stroke-opacity="1" cx="671" cy="419" rx="5" ry="5" />
	<line stroke="black" stroke-opacity="1" x1="666" y1="419" x2="676" y2="419" />
	<line stroke="black" stroke-opacity="1" x1="671" y1="414" x2="671" y2="424" />
</g>
<g>
	<line stroke="black" stroke-opacity="1" x1="589" y1="488" x2="671" y2="488" />
</g>
<g>
	<line stroke="black" stroke-opacity="1" x1="539" y1="406" x2="533" y2="412" />
	<line stroke="black" stroke-opacity="1" x1="539" y1="406" x2="545" y2="411" />
	<line stroke="black" stroke-opacity="1" x1="540" y1="458" x2="539" y2="406" />
	<polygon fill="#000000" stroke="black" stroke-opacity="1" points="540,458 533,452 539,446 545,451" />
</g>
<g>
	<line stroke="black" stroke-opacity="1" x1="492" y1="488" x2="419" y2="488" />
	<polygon fill="#000000" stroke="black" stroke-opacity="1" points="492,488 486,494 480,488 486,482" />
</g>
<g>
	<line stroke="black" stroke-opacity="1" x1="419" y1="401" x2="413" y2="407" />
	<line stroke="black" stroke-opacity="1" x1="419" y1="401" x2="425" y2="407" />
	<line stroke="black" stroke-opacity="1" x1="419" y1="488" x2="419" y2="401" />
</g>
<g>
	<line stroke="black" stroke-opacity="1" x1="541" y1="517" x2="535" y2="523" />
	<line stroke="black" stroke-opacity="1" x1="541" y1="517" x2="547" y2="523" />
	<line stroke-dasharray="4,4" stroke="black" stroke-opacity="1" x1="541" y1="546" x2="541" y2="517" />
</g>
<g>
	<line stroke-dasharray="4,4" stroke="black" stroke-opacity="1" x1="714" y1="596" x2="714" y2="611" />
</g>
<g>
	<line stroke="black" stroke-opacity="1" x1="592" y1="611" x2="598" y2="617" />
	<line stroke="black" stroke-opacity="1" x1="592" y1="611" x2="598" y2="605" />
	<line stroke-dasharray="4,4" stroke="black" stroke-opacity="1" x1="714" y1="611" x2="592" y2="611" />
</g>
<g>
	<line stroke="black" stroke-opacity="1" x1="714" y1="543" x2="719" y2="536" />
	<line stroke="black" stroke-opacity="1" x1="714" y1="543" x2="707" y2="537" />
	<line stroke="black" stroke-opacity="1" x1="713" y1="413" x2="714" y2="543" />
	<polygon fill="#000000" stroke="black" stroke-opacity="1" points="713,413 719,418 713,424 707,419" />
</g>
</svg>
