<?xml version="1.0" encoding="us-ascii" standalone="no"?>
<svg xmlns="http://www.w3.org/2000/svg" xmlns:xlink="http://www.w3.org/1999/xlink" contentStyleType="text/css" height="1433px" preserveAspectRatio="none" style="width:1340px;height:1433px;background:#FFFFFF;" version="1.1" viewBox="0 0 1340 1433" width="1340px" zoomAndPan="magnify">
  <defs/>
  <g>
    <text fill="#000000" font-family="sans-serif" font-size="14" font-weight="bold" lengthAdjust="spacing" textLength="223" x="551.5" y="24.9659">DHCPv4 Assign Lease (Kea 1.8.0)</text>
    <!--cluster init_reboot-->
    <g id="cluster_init_reboot">
      <rect fill="none" height="391.06" rx="2.5" ry="2.5" style="stroke:#181818;stroke-width:1.0;" width="442" x="487" y="477.3379"/>
      <text fill="#000000" font-family="sans-serif" font-size="14" font-weight="bold" lengthAdjust="spacing" textLength="129" x="643.5" y="494.3039">INIT-REBOOT state</text>
    </g>
    <!--cluster allocated-->
    <g id="cluster_allocated">
      <rect fill="none" height="274.03" rx="2.5" ry="2.5" style="stroke:#181818;stroke-width:1.0;" width="160" x="7" y="1153.5379"/>
      <text fill="#000000" font-family="sans-serif" font-size="14" font-weight="bold" lengthAdjust="spacing" textLength="106" x="34" y="1170.5039">Lease allocated</text>
    </g>
    <!--entity by_client_id-->
    <g id="elem_by_client_id">
      <rect fill="#F1F1F1" height="39.0679" rx="2.5" ry="2.5" style="stroke:#181818;stroke-width:0.5;" width="217" x="511.5" y="587.1979"/>
      <text fill="#000000" font-family="sans-serif" font-size="14" lengthAdjust="spacing" textLength="197" x="521.5" y="612.1639">Get existing lease by client id</text>
    </g>
    <!--entity by_hw_addr-->
    <g id="elem_by_hw_addr">
      <rect fill="#F1F1F1" height="39.0679" rx="2.5" ry="2.5" style="stroke:#181818;stroke-width:0.5;" width="286" x="619" y="705.2679"/>
      <text fill="#000000" font-family="sans-serif" font-size="14" lengthAdjust="spacing" textLength="266" x="629" y="730.2339">Get existing lease by hardware address</text>
    </g>
    <!--entity authoritative-->
    <g id="elem_authoritative">
      <rect fill="#F1F1F1" height="39.0679" rx="2.5" ry="2.5" style="stroke:#181818;stroke-width:0.5;" width="133" x="519.5" y="805.3379"/>
      <text fill="#000000" font-family="sans-serif" font-size="14" lengthAdjust="spacing" textLength="113" x="529.5" y="830.3039">Get authoritative</text>
    </g>
    <!--entity ddns-->
    <g id="elem_ddns">
      <rect fill="#F1F1F1" height="39.0679" rx="2.5" ry="2.5" style="stroke:#181818;stroke-width:0.5;" width="111" x="31.5" y="1264.4279"/>
      <text fill="#000000" font-family="sans-serif" font-size="14" lengthAdjust="spacing" textLength="91" x="41.5" y="1289.3939">update DDNS</text>
    </g>
    <!--entity ack-->
    <g id="elem_ack">
      <rect fill="#F1F1F1" height="39.0679" rx="2.5" ry="2.5" style="stroke:#181818;stroke-width:0.5;" width="85" x="44.5" y="1364.4979"/>
      <text fill="#000000" font-family="sans-serif" font-size="14" lengthAdjust="spacing" textLength="65" x="54.5" y="1389.4639">Send ACK</text>
    </g>
    <!--entity subnet-->
    <g id="elem_subnet">
      <rect fill="#F1F1F1" height="39.0679" rx="2.5" ry="2.5" style="stroke:#181818;stroke-width:0.5;" width="112" x="1177" y="47.0679"/>
      <text fill="#000000" font-family="sans-serif" font-size="14" lengthAdjust="spacing" textLength="92" x="1187" y="72.0339">Check Subnet</text>
    </g>
    <g id="elem_GMN3">
      <path d="M1054,52.7479 L1054,80.4539 A0,0 0 0 0 1054,80.4539 L1142,80.4539 A0,0 0 0 0 1142,80.4539 L1142,70.7479 L1176.66,66.5979 L1142,62.7479 L1142,62.7479 L1132,52.7479 L1054,52.7479 A0,0 0 0 0 1054,52.7479 " fill="#FEFFDD" style="stroke:#181818;stroke-width:0.5;"/>
      <path d="M1132,52.7479 L1132,62.7479 L1142,62.7479 L1132,52.7479 " fill="#FEFFDD" style="stroke:#181818;stroke-width:0.5;"/>
      <text fill="#000000" font-family="sans-serif" font-size="13" lengthAdjust="spacing" textLength="67" x="1060" y="71.6449">entry point</text>
    </g>
    <!--entity server_id-->
    <g id="elem_server_id">
      <rect fill="#F1F1F1" height="39.0679" rx="2.5" ry="2.5" style="stroke:#181818;stroke-width:0.5;" width="106" x="1020" y="147.1379"/>
      <text fill="#000000" font-family="sans-serif" font-size="14" lengthAdjust="spacing" textLength="86" x="1030" y="172.1039">Get server id</text>
    </g>
    <!--entity hint-->
    <g id="elem_hint">
      <rect fill="#F1F1F1" height="39.0679" rx="2.5" ry="2.5" style="stroke:#181818;stroke-width:0.5;" width="74" x="832" y="247.1979"/>
      <text fill="#000000" font-family="sans-serif" font-size="14" lengthAdjust="spacing" textLength="54" x="842" y="272.1639">Get hint</text>
    </g>
    <!--entity ident-->
    <g id="elem_ident">
      <rect fill="#F1F1F1" height="39.0679" rx="2.5" ry="2.5" style="stroke:#181818;stroke-width:0.5;" width="258" x="556" y="365.2679"/>
      <text fill="#000000" font-family="sans-serif" font-size="14" lengthAdjust="spacing" textLength="238" x="566" y="390.2339">Get hardware address and client id</text>
    </g>
    <!--entity hostname-->
    <g id="elem_hostname">
      <rect fill="#F1F1F1" height="39.0679" rx="2.5" ry="2.5" style="stroke:#181818;stroke-width:0.5;" width="142" x="277" y="941.3979"/>
      <text fill="#000000" font-family="sans-serif" font-size="14" lengthAdjust="spacing" textLength="122" x="287" y="966.3639">Process hostname</text>
    </g>
    <!--entity allocate-->
    <g id="elem_allocate">
      <rect fill="#F1F1F1" height="39.0679" rx="2.5" ry="2.5" style="stroke:#181818;stroke-width:0.5;" width="114" x="205" y="1041.4679"/>
      <text fill="#000000" font-family="sans-serif" font-size="14" lengthAdjust="spacing" textLength="94" x="215" y="1066.4339">Request lease</text>
    </g>
    <!--entity failed-->
    <g id="elem_failed">
      <rect fill="#F1F1F1" height="39.0679" rx="2.5" ry="2.5" style="stroke:#181818;stroke-width:0.5;" width="143" x="190.5" y="1164.3679"/>
      <text fill="#000000" font-family="sans-serif" font-size="14" lengthAdjust="spacing" textLength="123" x="200.5" y="1189.3339">No lease allocated</text>
    </g>
    <g id="elem_GMN19">
      <path d="M368,1170.0479 L368,1179.8979 L333.93,1183.8979 L368,1187.8979 L368,1197.7539 A0,0 0 0 0 368,1197.7539 L446,1197.7539 A0,0 0 0 0 446,1197.7539 L446,1180.0479 L436,1170.0479 L368,1170.0479 A0,0 0 0 0 368,1170.0479 " fill="#FEFFDD" style="stroke:#181818;stroke-width:0.5;"/>
      <path d="M436,1170.0479 L436,1180.0479 L446,1180.0479 L436,1170.0479 " fill="#FEFFDD" style="stroke:#181818;stroke-width:0.5;"/>
      <text fill="#000000" font-family="sans-serif" font-size="13" lengthAdjust="spacing" textLength="57" x="374" y="1188.9449">exit point</text>
    </g>
    <!--entity nak-->
    <g id="elem_nak">
      <rect fill="#F1F1F1" height="39.0679" rx="2.5" ry="2.5" style="stroke:#181818;stroke-width:0.5;" width="87" x="591.5" y="1264.4279"/>
      <text fill="#000000" font-family="sans-serif" font-size="14" lengthAdjust="spacing" textLength="67" x="601.5" y="1289.3939">Send NAK</text>
    </g>
    <g id="elem_GMN23">
      <path d="M713,1270.1179 L713,1279.9679 L678.88,1283.9679 L713,1287.9679 L713,1297.8239 A0,0 0 0 0 713,1297.8239 L791,1297.8239 A0,0 0 0 0 791,1297.8239 L791,1280.1179 L781,1270.1179 L713,1270.1179 A0,0 0 0 0 713,1270.1179 " fill="#FEFFDD" style="stroke:#181818;stroke-width:0.5;"/>
      <path d="M781,1270.1179 L781,1280.1179 L791,1280.1179 L781,1270.1179 " fill="#FEFFDD" style="stroke:#181818;stroke-width:0.5;"/>
      <text fill="#000000" font-family="sans-serif" font-size="13" lengthAdjust="spacing" textLength="57" x="719" y="1289.0149">exit point</text>
    </g>
    <!--entity no_response-->
    <g id="elem_no_response">
      <rect fill="#F1F1F1" height="39.0679" rx="2.5" ry="2.5" style="stroke:#181818;stroke-width:0.5;" width="105" x="999.5" y="1041.4679"/>
      <text fill="#000000" font-family="sans-serif" font-size="14" lengthAdjust="spacing" textLength="85" x="1009.5" y="1066.4339">No response</text>
    </g>
    <g id="elem_GMN27">
      <path d="M1139,1047.1479 L1139,1057.0079 L1104.66,1061.0079 L1139,1065.0079 L1139,1074.8539 A0,0 0 0 0 1139,1074.8539 L1217,1074.8539 A0,0 0 0 0 1217,1074.8539 L1217,1057.1479 L1207,1047.1479 L1139,1047.1479 A0,0 0 0 0 1139,1047.1479 " fill="#FEFFDD" style="stroke:#181818;stroke-width:0.5;"/>
      <path d="M1207,1047.1479 L1207,1057.1479 L1217,1057.1479 L1207,1047.1479 " fill="#FEFFDD" style="stroke:#181818;stroke-width:0.5;"/>
      <text fill="#000000" font-family="sans-serif" font-size="13" lengthAdjust="spacing" textLength="57" x="1145" y="1066.0449">exit point</text>
    </g>
    <!--link subnet to server_id-->
    <g id="link_subnet_server_id">
      <path d="M1202.15,86.5079 C1175.67,102.7379 1137.47,126.1579 1109.48,143.3079 " fill="none" id="subnet-to-server_id" style="stroke:#181818;stroke-width:1.0;"/>
      <polygon fill="#181818" points="1105.32,145.8579,1115.0825,144.5568,1109.5807,143.2414,1110.8961,137.7396,1105.32,145.8579" style="stroke:#181818;stroke-width:1.0;"/>
    </g>
    <!--link subnet to nak-->
    <g id="link_subnet_nak">
      <path d="M1244.71,86.3479 C1255.55,105.5279 1270,136.5579 1270,165.6679 C1270,165.6679 1270,165.6679 1270,1184.8979 C1270,1249.0679 757.06,1228.6979 696,1248.4279 C686.6,1251.4679 677.03,1256.0479 668.34,1260.8979 " fill="none" id="subnet-to-nak" style="stroke:#181818;stroke-width:1.0;"/>
      <polygon fill="#181818" points="664.37,1263.1779,674.1655,1262.1545,668.7033,1260.6834,670.1743,1255.2212,664.37,1263.1779" style="stroke:#181818;stroke-width:1.0;"/>
      <text fill="#000000" font-family="sans-serif" font-size="13" lengthAdjust="spacing" textLength="61" x="1271" y="671.1649">no subnet</text>
    </g>
    <!--link server_id to hint-->
    <g id="link_server_id_hint">
      <path d="M1033.67,186.5779 C998.83,203.3279 948.06,227.7279 912.13,245.0079 " fill="none" id="server_id-to-hint" style="stroke:#181818;stroke-width:1.0;"/>
      <polygon fill="#181818" points="907.86,247.0579,917.704,246.7491,912.3631,244.885,914.2273,239.5441,907.86,247.0579" style="stroke:#181818;stroke-width:1.0;"/>
    </g>
    <!--link hint to ident-->
    <g id="link_hint_ident">
      <path d="M831.51,268.0879 C759.25,269.6479 604.9,277.5579 572,316.2679 C555.28,335.9479 575.32,351.4079 602.93,362.5379 " fill="none" id="hint-to-ident" style="stroke:#181818;stroke-width:1.0;"/>
      <polygon fill="#181818" points="607.52,364.3079,600.5673,357.3323,602.8562,362.5054,597.6832,364.7943,607.52,364.3079" style="stroke:#181818;stroke-width:1.0;"/>
      <text fill="#000000" font-family="sans-serif" font-size="13" lengthAdjust="spacing" textLength="178" x="573" y="331.1649">use requested address option</text>
    </g>
    <!--link hint to ident-->
    <g id="link_hint_ident">
      <path d="M839.01,286.6279 C824.77,295.6079 807.5,306.4879 792,316.2679 C768.12,331.3279 741.25,348.2879 720.41,361.4479 " fill="none" id="hint-to-ident-1" style="stroke:#181818;stroke-width:1.0;"/>
      <polygon fill="#181818" points="716.26,364.0679,726.0052,362.6427,720.4871,361.3974,721.7324,355.8793,716.26,364.0679" style="stroke:#181818;stroke-width:1.0;"/>
      <text fill="#000000" font-family="sans-serif" font-size="13" lengthAdjust="spacing" textLength="106" x="793" y="331.1649">use client address</text>
    </g>
    <!--link hint to ident-->
    <g id="link_hint_ident">
      <path d="M890.07,286.6879 C903.34,300.9279 915.9,320.4379 904,335.2679 C892.23,349.9379 858.17,360.4479 820.31,367.8479 " fill="none" id="hint-to-ident-2" style="stroke:#181818;stroke-width:1.0;"/>
      <polygon fill="#181818" points="815.69,368.7279,825.2762,370.9874,820.6031,367.7996,823.7908,363.1265,815.69,368.7279" style="stroke:#181818;stroke-width:1.0;"/>
      <text fill="#000000" font-family="sans-serif" font-size="13" lengthAdjust="spacing" textLength="43" x="909" y="331.1649">no hint</text>
    </g>
    <!--link ident to init_reboot-->
    <g id="link_ident_init_reboot">
      <path d="M685,404.6979 C685,421.4329 685,446.4029 685,467.4479 C685,470.0785 685,472.6478 685,475.1321 C685,475.7531 685,476.3688 685,476.9789 " fill="none" id="ident-to-init_reboot" style="stroke:#181818;stroke-width:1.0;"/>
      <polygon fill="#181818" points="685,476.9789,689,467.9789,685,471.9789,681,467.9789,685,476.9789" style="stroke:#181818;stroke-width:1.0;"/>
      <text fill="#000000" font-family="sans-serif" font-size="13" lengthAdjust="spacing" textLength="210" x="686" y="449.2349">requested address and no server id</text>
    </g>
    <!--link ident to hostname-->
    <g id="link_ident_hostname">
      <path d="M569.5,404.8179 C471.94,424.2579 348,458.4479 348,506.6979 C348,506.6979 348,506.6979 348,825.8679 C348,863.8479 348,907.8779 348,934.8179 " fill="none" id="ident-to-hostname" style="stroke:#181818;stroke-width:1.0;"/>
      <polygon fill="#181818" points="348,939.7679,352,930.7679,348,934.7679,344,930.7679,348,939.7679" style="stroke:#181818;stroke-width:1.0;"/>
    </g>
    <!--link init_reboot to by_client_id-->
    <g id="link_init_reboot_by_client_id">
      <path d="M684.81,508.4779 C682.27,512.2879 654.33,554.2279 635.97,581.7679 " fill="none" id="init_reboot-to-by_client_id" style="stroke:#181818;stroke-width:1.0;"/>
      <polygon fill="#181818" points="633.28,585.8079,641.5922,580.5251,636.0469,581.6433,634.9287,576.098,633.28,585.8079" style="stroke:#181818;stroke-width:1.0;"/>
      <text fill="#000000" font-family="sans-serif" font-size="13" lengthAdjust="spacing" textLength="80" x="664" y="553.0949">has a client id</text>
    </g>
    <!--link init_reboot to by_hw_addr-->
    <g id="link_init_reboot_by_hw_addr">
      <path d="M685.56,508.2379 C691.04,508.6379 735.47,512.6679 753,538.1979 C786.32,586.7179 776.72,660.3479 768.45,698.6579 " fill="none" id="init_reboot-to-by_hw_addr" style="stroke:#181818;stroke-width:1.0;"/>
      <polygon fill="#181818" points="767.37,703.4579,773.2491,695.5563,768.4682,698.58,765.4445,693.7991,767.37,703.4579" style="stroke:#181818;stroke-width:1.0;"/>
      <text fill="#000000" font-family="sans-serif" font-size="13" lengthAdjust="spacing" textLength="65" x="777" y="612.1249">no client id</text>
    </g>
    <!--link by_client_id to authoritative-->
    <g id="link_by_client_id_authoritative">
      <path d="M605.16,626.5679 C591.42,645.2879 571.95,675.4579 564,705.2679 C555.44,737.3479 565.93,775.1879 575.15,799.3479 " fill="none" id="by_client_id-to-authoritative" style="stroke:#181818;stroke-width:1.0;"/>
      <polygon fill="#181818" points="576.89,803.7779,577.2979,793.9375,575.0503,799.1287,569.8591,796.8811,576.89,803.7779" style="stroke:#181818;stroke-width:1.0;"/>
      <text fill="#000000" font-family="sans-serif" font-size="13" lengthAdjust="spacing" textLength="36" x="565" y="730.1949">found</text>
    </g>
    <!--link by_client_id to by_hw_addr-->
    <g id="link_by_client_id_by_hw_addr">
      <path d="M615.57,626.5079 C613.24,641.2079 612.7,661.4279 623,675.2679 C631.4,686.5579 642.62,695.2379 655.06,701.9079 " fill="none" id="by_client_id-to-by_hw_addr" style="stroke:#181818;stroke-width:1.0;"/>
      <polygon fill="#181818" points="659.5,704.1479,653.2585,696.5293,655.0336,701.9004,649.6625,703.6755,659.5,704.1479" style="stroke:#181818;stroke-width:1.0;"/>
      <text fill="#000000" font-family="sans-serif" font-size="13" lengthAdjust="spacing" textLength="60" x="624" y="671.1649">not found</text>
    </g>
    <!--link by_hw_addr to authoritative-->
    <g id="link_by_hw_addr_authoritative">
      <path d="M728.07,744.7079 C698.82,761.0079 656.57,784.5479 625.75,801.7179 " fill="none" id="by_hw_addr-to-authoritative" style="stroke:#181818;stroke-width:1.0;"/>
      <polygon fill="#181818" points="621.45,804.1179,631.26,803.2438,625.8208,801.6897,627.3748,796.2505,621.45,804.1179" style="stroke:#181818;stroke-width:1.0;"/>
    </g>
    <!--link authoritative to no_response-->
    <g id="link_authoritative_no_response">
      <path d="M652.89,841.8779 C695.29,853.2479 750.68,870.3979 797,892.3979 C884.78,934.0979 977.68,1002.0879 1023.3,1037.2879 " fill="none" id="authoritative-to-no_response" style="stroke:#181818;stroke-width:1.0;"/>
      <polygon fill="#181818" points="1027.17,1040.2779,1022.5281,1031.5915,1023.2255,1037.2052,1017.6119,1037.9027,1027.17,1040.2779" style="stroke:#181818;stroke-width:1.0;"/>
      <text fill="#000000" font-family="sans-serif" font-size="13" lengthAdjust="spacing" textLength="224" x="944" y="966.3349">not authoritative and no owned lease</text>
    </g>
    <!--link authoritative to nak-->
    <g id="link_authoritative_nak">
      <path d="M652.79,844.4179 C705.78,863.6879 771,899.6479 771,959.9379 C771,959.9379 771,959.9379 771,1184.8979 C771,1197.1579 712.12,1235.7379 671.85,1260.6979 " fill="none" id="authoritative-to-nak" style="stroke:#181818;stroke-width:1.0;"/>
      <polygon fill="#181818" points="667.83,1263.1779,677.5925,1261.8768,672.0907,1260.5614,673.4061,1255.0596,667.83,1263.1779" style="stroke:#181818;stroke-width:1.0;"/>
      <text fill="#000000" font-family="sans-serif" font-size="13" lengthAdjust="spacing" textLength="192" x="772" y="1066.4049">owned lease with hint mismatch</text>
    </g>
    <!--link authoritative to nak-->
    <g id="link_authoritative_nak">
      <path d="M563.6,844.6979 C537.82,868.6079 499,912.4879 499,959.9379 C499,959.9379 499,959.9379 499,1184.8979 C499,1229.0079 546.66,1255.2679 585.55,1269.3379 " fill="none" id="authoritative-to-nak-1" style="stroke:#181818;stroke-width:1.0;"/>
      <polygon fill="#181818" points="589.79,1270.8279,582.6258,1264.0697,585.0729,1269.1698,579.9728,1271.617,589.79,1270.8279" style="stroke:#181818;stroke-width:1.0;"/>
      <text fill="#000000" font-family="sans-serif" font-size="13" lengthAdjust="spacing" textLength="200" x="500" y="1066.4049">authoritative and no owned lease</text>
    </g>
    <!--link authoritative to hostname-->
    <g id="link_authoritative_hostname">
      <path d="M519.21,840.8179 C482.59,851.2179 437.72,867.7179 403,892.3979 C386.76,903.9479 372.66,921.5079 362.8,935.8279 " fill="none" id="authoritative-to-hostname" style="stroke:#181818;stroke-width:1.0;"/>
      <polygon fill="#181818" points="360.21,939.6879,368.5513,934.4513,363,935.5387,361.9126,929.9873,360.21,939.6879" style="stroke:#181818;stroke-width:1.0;"/>
      <text fill="#000000" font-family="sans-serif" font-size="13" lengthAdjust="spacing" textLength="68" x="404" y="907.2949">other cases</text>
    </g>
    <!--link hostname to allocate-->
    <g id="link_hostname_allocate">
      <path d="M331.42,980.8479 C317.5,996.7179 297.55,1019.4679 282.6,1036.5079 " fill="none" id="hostname-to-allocate" style="stroke:#181818;stroke-width:1.0;"/>
      <polygon fill="#181818" points="279.53,1040.0179,288.4746,1035.8956,282.8296,1036.2612,282.4639,1030.6162,279.53,1040.0179" style="stroke:#181818;stroke-width:1.0;"/>
    </g>
    <!--link allocate to allocated-->
    <g id="link_allocate_allocated">
      <path d="M214.81,1080.8979 C198.19,1088.7379 179.94,1098.7679 165,1110.5379 C156.9975,1116.8404 149.2931,1124.3342 142.2119,1132.0726 C138.6713,1135.9418 135.2864,1139.8722 132.098,1143.7455 C130.5038,1145.6821 128.9586,1147.6044 127.4677,1149.4977 C126.7222,1150.4443 125.9903,1151.3837 125.2726,1152.3139 C125.0931,1152.5465 124.9146,1152.7784 124.7369,1153.0098 C124.6481,1153.1255 124.5595,1153.2411 124.4711,1153.3565 " fill="none" id="allocate-to-allocated" style="stroke:#181818;stroke-width:1.0;"/>
      <polygon fill="#181818" points="124.4711,1153.3565,133.1191,1148.6435,127.5113,1149.3869,126.7678,1143.7792,124.4711,1153.3565" style="stroke:#181818;stroke-width:1.0;"/>
      <text fill="#000000" font-family="sans-serif" font-size="13" lengthAdjust="spacing" textLength="87" x="166" y="1125.4349">lease allocated</text>
    </g>
    <!--link allocated to ddns-->
    <g id="link_allocated_ddns">
      <path d="M103.99,1184.9679 C103.65,1186.9379 96.26,1229.5779 91.34,1257.9479 " fill="none" id="allocated-to-ddns" style="stroke:#181818;stroke-width:1.0;"/>
      <polygon fill="#181818" points="90.52,1262.6279,96.0029,1254.4464,91.3767,1257.7019,88.1212,1253.0756,90.52,1262.6279" style="stroke:#181818;stroke-width:1.0;"/>
    </g>
    <!--link ddns to ack-->
    <g id="link_ddns_ack">
      <path d="M87,1303.8779 C87,1319.2079 87,1340.9479 87,1357.7679 " fill="none" id="ddns-to-ack" style="stroke:#181818;stroke-width:1.0;"/>
      <polygon fill="#181818" points="87,1362.6679,91,1353.6679,87,1357.6679,83,1353.6679,87,1362.6679" style="stroke:#181818;stroke-width:1.0;"/>
    </g>
    <!--link allocate to failed-->
    <g id="link_allocate_failed">
      <path d="M262,1080.8979 C262,1101.5679 262,1134.8079 262,1157.6879 " fill="none" id="allocate-to-failed" style="stroke:#181818;stroke-width:1.0;"/>
      <polygon fill="#181818" points="262,1162.6279,266,1153.6279,262,1157.6279,258,1153.6279,262,1162.6279" style="stroke:#181818;stroke-width:1.0;"/>
      <text fill="#000000" font-family="sans-serif" font-size="13" lengthAdjust="spacing" textLength="106" x="263" y="1125.4349">no lease allocated</text>
    </g>
    <!--link failed to nak-->
    <g id="link_failed_nak">
      <path d="M333.92,1203.8079 C407.65,1223.1879 520.38,1252.8279 584.94,1269.8079 " fill="none" id="failed-to-nak" style="stroke:#181818;stroke-width:1.0;"/>
      <polygon fill="#181818" points="589.57,1271.0179,581.8807,1264.8636,584.7339,1269.7483,579.8493,1272.6014,589.57,1271.0179" style="stroke:#181818;stroke-width:1.0;"/>
    </g>
    <!--SRC=[dLF1Rjim3BtxAuYSjaEA3jXXw650bWnRqI4jcju3nM8Y8OwKMNJIODY_Zv8intBI3TZ5iAZt7YdoaJHL2BFlqwV3HvWufpS6Vg1m2EyUKC27cqytj- -BGcpG48oc2iijB9gLGHg1SE32Rs4i8LIu9hW31jOds5jjgEDzGmA7zG5hq38ImscfPOPHJ0hNQiXMefP7KIC8AMjq3eIHK5RQ0rf9BT6JQYn9c0s_QdG_ltyPFt_zylZu0eu4OSGPJSiQLzOI_2gWbmHVjIDjDlmKtu7LQP1XTLh6GAZxxynXmKb07PS-ajD5GyhMcalKXrXa5Yb-Txrugctfdw-i8oDs4PmE7UePVpReA5OJzQhAbjo1h3znqEbAPa3Pwqspbno1sMo-21WfZUik5yYJc4mV8hlSzegTsxOVUOgrq1NAQ9fQRrHmpQkcWMc2y7mIXOtO_fF0wRZJUslQDnkxJEUtkT71C1v_xdco2tAKCpF5sEJr3XKumQZ-4qx1Wenk-Crrd04tCbdMxabRSntT6gs5Nc8uVqWLp-6cP-ExAzdyWlYgqzfrL5zrCanVn5_q7Swgoe_ql0JNuAsVOubdP2OKScQEPlZQDkO2To59PrmANuWLkNISsddshKuEQhjZZuPR5anweP96tyF0KPCAWu2TTZj1fNgJzX_vqbXyKb8yjP9nR8OK3YzFYvn-igWVsc3bYlETHuRTzP_8uttDXE9kncaEXTgxzed57m00]-->
  </g>
</svg>
